<?xml version="1.0" encoding="UTF-8"?>
<svg width="1200" height="300" viewBox="0 0 1200 300" xmlns="http://www.w3.org/2000/svg">
  <rect width="1200" height="300" fill="#FAF9FA"/>
  <g transform="scale(0.18) translate(40,40)">
    <!-- Simple GatewayAPI Icon -->
    <svg width="1536" height="1024" viewBox="0 0 1536 1024">
      <path d="M0 0 C506.88 0 1013.76 0 1536 0 C1536 337.92 1536 675.84 1536 1024 C1029.12 1024 522.24 1024 0 1024 C0 686.08 0 348.16 0 0 Z " fill="#FAF9FA"/>
      <path d="M0 0 C1.29051872 -0.00668677 1.29051872 -0.00668677 2.60710853 -0.01350862 C4.01792649 -0.01323207 4.01792649 -0.01323207 5.45724583 -0.01294994 C6.4601286 -0.01662663 7.46301138 -0.02030332 8.49628454 -0.02409142 C11.86694887 -0.03513085 15.23758236 -0.0389726 18.60826206 -0.04278088 C21.02122693 -0.04904546 23.43419082 -0.05569225 25.84715366 -0.0626936 C33.0966303 -0.08192365 40.34610439 -0.09252359 47.59559879 -0.10142139 C51.01336513 -0.10580821 54.43112994 -0.11117411 57.84889507 -0.11641026 C69.2179272 -0.13342331 80.58695838 -0.14791498 91.95600128 -0.155159 C94.90535515 -0.15706876 97.85470901 -0.15898911 100.80406284 -0.16094494 C101.90357755 -0.16167055 101.90357755 -0.16167055 103.02530468 -0.16241082 C114.88562577 -0.17070176 126.7458457 -0.19602245 138.60612267 -0.22852562 C150.79575785 -0.2616576 162.98534175 -0.27961342 175.17502218 -0.28280324 C182.01374812 -0.28496301 188.85232667 -0.29363274 195.69100857 -0.31926441 C202.13013985 -0.34334327 208.56907846 -0.34675864 215.00824833 -0.33650303 C217.36519661 -0.3360087 219.72215812 -0.34229857 222.07906628 -0.35605907 C241.92148629 -0.46537632 257.39263276 1.65624963 272.3975687 15.75531483 C281.94577233 25.6782773 286.88251768 38.39680092 286.78428745 52.06000233 C286.78216503 53.18138851 286.78216503 53.18138851 286.77999973 54.32542896 C286.77442884 56.69923472 286.7618818 59.07294411 286.7491312 61.44672108 C286.74411244 63.06195408 286.73955019 64.67718858 286.73545933 66.2924242 C286.72446895 70.23972663 286.70722452 74.18695754 286.6866312 78.13422108 C287.94217808 78.07621326 289.19772495 78.01820545 290.4913187 77.95843983 C301.14111417 77.60954521 309.56527919 77.42709589 317.7647562 85.07172108 C323.17416696 90.87694238 324.98760793 95.69457975 324.97715855 103.64325428 C324.98387577 104.382159 324.99059299 105.12106373 324.99751377 105.8823595 C325.01645675 108.31664287 325.02041622 110.75064991 325.0225687 113.18500233 C325.02899976 114.88505127 325.03572835 116.58509911 325.04274082 118.28514576 C325.05470473 121.8467614 325.05842262 125.40828012 325.05723667 128.96991444 C325.05703366 133.51939127 325.084321 138.0682422 325.11878109 142.61757088 C325.14109083 146.12903632 325.14507295 149.64035218 325.14401722 153.15188122 C325.14636761 154.82831635 325.15515936 156.50475596 325.17068195 158.18112087 C325.31717827 175.63787844 325.31717827 175.63787844 318.8272562 183.34125233 C318.20334995 183.87105701 317.5794437 184.4008617 316.9366312 184.94672108 C316.01624058 185.76076405 316.01624058 185.76076405 315.0772562 186.59125233 C308.5775824 190.78630323 302.71983325 191.56096772 295.1866312 191.32172108 C294.36420933 191.30818592 293.54178745 191.29465076 292.6944437 191.28070545 C290.69154899 191.24577124 288.68899764 191.19198165 286.6866312 191.13422108 C286.68833994 192.12400782 286.68833994 192.12400782 286.69008321 193.13379025 C286.75725508 232.26473732 286.8087099 271.39567693 286.83982719 310.52666999 C286.84357919 315.22788504 286.84746217 319.92909996 286.85142612 324.63031483 C286.85221306 325.56622014 286.85299999 326.50212545 286.85381076 327.46639153 C286.86685549 342.60937442 286.8905042 357.75232305 286.91808959 372.89528564 C286.94616975 388.43979203 286.96281298 403.98428051 286.96889669 419.52881122 C286.97300771 429.11631366 286.98598002 438.70371927 287.0103806 448.29119191 C287.02627003 454.87064497 287.03102431 461.45004815 287.02713533 468.02951899 C287.02521877 471.82237105 287.02810318 475.61505419 287.04424763 479.40787601 C287.06165993 483.52886414 287.05556759 487.64949581 287.04739475 491.77051258 C287.05613328 492.95731625 287.0648718 494.14411992 287.07387513 495.36688733 C286.98997765 511.06555734 282.3551385 524.56049481 271.4366312 536.07172108 C258.50791336 548.22330287 243.10002747 552.29147922 225.80117893 552.27466297 C224.35086481 552.27911965 224.35086481 552.27911965 222.8712514 552.28366637 C219.64653512 552.2923056 216.42185617 552.29385755 213.19712925 552.29535389 C210.87885046 552.29998535 208.56057242 552.30501046 206.24229527 552.31039906 C199.95504113 552.32349125 193.66779766 552.32996151 187.38053203 552.33440971 C183.4499537 552.33734488 179.51937826 552.34145047 175.58880138 552.34591389 C164.69141053 552.3580151 153.79402286 552.36840033 142.89662552 552.37178898 C141.85221194 552.37211833 141.85221194 552.37211833 140.78669911 552.37245433 C139.73989737 552.37278175 139.73989737 552.37278175 138.67194813 552.37311578 C137.25797856 552.37355923 135.84400898 552.3740058 134.43003941 552.37445545 C133.72867313 552.37467688 133.02730686 552.37489831 132.30468706 552.37512645 C120.94121047 552.37907416 109.57779801 552.39653106 98.21434619 552.41981497 C86.52857903 552.44356484 74.84284401 552.45599242 63.15705234 552.4571569 C56.60352168 552.45820389 50.05008163 552.46408977 43.49657345 552.48197651 C37.33153778 552.49847677 31.16666066 552.50060309 25.00161076 552.4918375 C22.7438022 552.49106825 20.48598504 552.49539503 18.22819805 552.50529575 C15.13628969 552.51805525 12.04493962 552.5121166 8.9530344 552.50171375 C8.06837787 552.50977016 7.18372134 552.51782656 6.27225703 552.5261271 C-7.92259443 552.41510249 -22.9669383 546.45665764 -33.2196188 536.54828358 C-47.68595027 519.86881931 -48.9029976 503.76323856 -48.76747036 482.5255785 C-48.76634069 480.04093411 -48.76697807 477.5562884 -48.76924038 475.07164478 C-48.77014761 469.74444672 -48.75889417 464.41749226 -48.73628902 459.09035778 C-48.70362839 451.38848418 -48.69334773 443.68670507 -48.68833706 435.98476974 C-48.67960631 423.48562333 -48.6530514 410.986582 -48.61512661 398.48749256 C-48.57834877 386.3537088 -48.55006536 374.2199537 -48.53309536 362.08612537 C-48.53204447 361.33681789 -48.53099357 360.58751041 -48.52991083 359.81549665 C-48.52469027 356.05602912 -48.51963553 352.29656139 -48.51466322 348.53709352 C-48.47327042 317.40272633 -48.4025833 286.26848974 -48.3133688 255.13422108 C-49.61894741 255.15307362 -50.92452602 255.17192616 -52.26966763 255.19134998 C-53.99907464 255.20659738 -55.72848576 255.22138432 -57.45790005 255.23578358 C-58.31645596 255.2493993 -59.17501186 255.26301502 -60.05958462 255.27704334 C-66.55618549 255.31759835 -71.67524482 254.55964734 -77.3133688 251.13422108 C-78.40004848 250.48066639 -78.40004848 250.48066639 -79.5086813 249.81390858 C-86.43646546 245.13573698 -90.02176067 239.08247485 -92.3133688 231.13422108 C-92.58079433 227.7465868 -92.58079433 227.7465868 -92.60389614 224.00238514 C-92.61061337 223.31531483 -92.61733059 222.62824451 -92.62425137 221.92035389 C-92.64314766 219.66344302 -92.64715159 217.40683099 -92.6493063 215.14984608 C-92.65574121 213.5681188 -92.66247008 211.98639269 -92.66947842 210.40466785 C-92.68143112 207.09281121 -92.68516143 203.7810587 -92.68397427 200.46918201 C-92.68377146 196.24836423 -92.71104243 192.02822264 -92.74551868 187.80756474 C-92.76788145 184.54050162 -92.77180892 181.27359865 -92.77075481 178.00646687 C-92.77309788 176.45169978 -92.78184761 174.89692739 -92.79741955 173.34223652 C-92.90426618 161.57067804 -91.77191735 151.84606877 -83.37977505 142.89203358 C-77.62415658 137.99594982 -70.55256553 134.98251253 -62.9852438 135.03656483 C-62.18602505 135.03978748 -61.3868063 135.04301014 -60.5633688 135.04633045 C-59.7383688 135.05470936 -58.9133688 135.06308826 -58.0633688 135.07172108 C-57.22290005 135.0762328 -56.3824313 135.08074451 -55.5164938 135.08539295 C-53.44875478 135.09714147 -51.38105255 135.11507586 -49.3133688 135.13422108 C-49.30972317 134.02081348 -49.30607754 132.90740589 -49.30232143 131.76025867 C-49.26525394 121.22706494 -49.20735351 110.69416039 -49.12946606 100.16118717 C-49.09008915 94.74707612 -49.05785279 89.33312534 -49.0423727 83.91888905 C-49.02714153 78.68615021 -48.99258197 73.45385228 -48.94505978 68.22131062 C-48.93031236 66.23284982 -48.92233163 64.24432604 -48.92148495 62.25581074 C-48.90571386 43.77536823 -45.76541101 29.3334863 -32.7586813 15.48968983 C-24.21144259 7.25648705 -12.19651799 0.02940882 0 0 Z " fill="#2D2D2E" transform="translate(1007.3133687973022,224.86577892303467)"/>
      <path d="M0 0 C1.23662888 -0.00525696 2.47325775 -0.01051392 3.74736023 -0.01593018 C7.12360364 -0.02683951 10.49929242 -0.02432742 13.87550426 -0.01479292 C17.41917175 -0.00716661 20.9628165 -0.01425031 24.50648499 -0.01895142 C30.45716577 -0.02440107 36.40773466 -0.01723894 42.35839844 -0.00292969 C49.22320659 0.01338788 56.08774727 0.00811177 62.95254892 -0.0084089 C68.86106962 -0.02205536 74.76951014 -0.02392782 80.67804152 -0.0160929 C84.2005101 -0.01143271 87.72285328 -0.01074548 91.24531364 -0.02070236 C95.17536558 -0.03103635 99.10512188 -0.01668309 103.03515625 0 C104.19229126 -0.00607269 105.34942627 -0.01214539 106.54162598 -0.0184021 C115.22195832 0.04972251 122.39493528 1.31776618 128.85635376 7.54136658 C135.61489509 14.77332248 136.32782376 22.01538395 136.24633789 31.60302734 C136.25112152 32.85394669 136.25590515 34.10486603 136.26083374 35.39369202 C136.2650863 38.69953795 136.24512246 42.00418797 136.21704102 45.30987549 C136.20728871 47.3229342 136.21700156 49.33490172 136.23413086 51.34790039 C136.26518719 55.245948 136.26123325 59.14241057 136.24633789 63.04052734 C136.25645905 64.2293602 136.2665802 65.41819305 136.27700806 66.64305115 C136.15052963 75.72238405 134.19831367 82.60777993 127.83227539 89.26318359 C120.15721975 94.28148921 114.72370725 95.65659441 105.58227539 95.38818359 C105.60584106 96.40972534 105.60584106 96.40972534 105.62988281 97.4519043 C105.69220761 100.53474641 105.73125797 103.61745603 105.76977539 106.70068359 C105.79491211 107.77253906 105.82004883 108.84439453 105.84594727 109.94873047 C105.86044922 111.49077148 105.86044922 111.49077148 105.87524414 113.06396484 C105.89880981 114.4857605 105.89880981 114.4857605 105.92285156 115.9362793 C105.58227539 118.38818359 105.58227539 118.38818359 104.23193359 120.18188477 C102.58227539 121.38818359 102.58227539 121.38818359 99.89477539 122.01318359 C93.45370724 120.79788772 89.35427521 115.3666881 85.20727539 110.57568359 C84.38361732 109.64068527 84.38361732 109.64068527 83.5433197 108.6867981 C81.58227539 106.38818359 81.58227539 106.38818359 79.7099762 103.8288269 C76.2173533 99.57480793 73.07072636 96.35706313 67.50363159 95.49932861 C62.51818239 95.07537833 57.54326641 95.21204646 52.54711914 95.33349609 C50.69968188 95.33987774 48.85222119 95.34124534 47.004776 95.33786011 C42.16250243 95.3397031 37.3226732 95.39756724 32.48101807 95.47113037 C24.73105655 95.58118919 16.98071342 95.61314525 9.23007393 95.63048935 C6.5368962 95.64570083 3.84534459 95.68957053 1.15257263 95.73733521 C-8.47427538 95.84643332 -15.55836405 95.44233668 -23.68725586 89.81787109 C-30.65145228 82.80078204 -32.8519552 75.02099863 -32.99916077 65.27856445 C-32.9942009 64.18036377 -32.98924103 63.08216309 -32.98413086 61.95068359 C-32.99032944 60.78996338 -32.99652802 59.62924316 -33.00291443 58.43334961 C-33.00998053 55.99284702 -33.00689518 53.5522959 -32.99414062 51.11181641 C-32.98026257 47.39834183 -33.0144143 43.68738406 -33.05249023 39.97412109 C-33.05344149 37.59130798 -33.05158229 35.20849175 -33.04663086 32.82568359 C-33.05988907 31.72748291 -33.07314728 30.62928223 -33.08680725 29.49780273 C-32.98769542 21.2095211 -31.16643809 14.43636523 -25.42799377 8.23950195 C-17.56948533 0.78303662 -10.48188949 -0.05491333 0 0 Z " fill="#3D86F6" transform="translate(1122.417724609375,501.61181640625)"/>
    </svg>
  </g>
  <text x="350" y="170" font-size="64" font-family="'Segoe UI', Arial, sans-serif" fill="#2D2D2E" font-weight="bold">GatewayAPI SMS</text>
  <text x="350" y="230" font-size="32" font-family="'Segoe UI', Arial, sans-serif" fill="#3D86F6">SMS Connector for Odoo</text>
</svg>