<?xml version="1.0" encoding="UTF-8"?>
<svg version="1.1" xmlns="http://www.w3.org/2000/svg" width="1536" height="1024">
<path d="M0 0 C506.88 0 1013.76 0 1536 0 C1536 337.92 1536 675.84 1536 1024 C1029.12 1024 522.24 1024 0 1024 C0 686.08 0 348.16 0 0 Z " fill="#FAF9FA" transform="translate(0,0)"/>
<path d="M0 0 C1.29051872 -0.00668677 1.29051872 -0.00668677 2.60710853 -0.01350862 C4.01792649 -0.01323207 4.01792649 -0.01323207 5.45724583 -0.01294994 C6.4601286 -0.01662663 7.46301138 -0.02030332 8.49628454 -0.02409142 C11.86694887 -0.03513085 15.23758236 -0.0389726 18.60826206 -0.04278088 C21.02122693 -0.04904546 23.43419082 -0.05569225 25.84715366 -0.0626936 C33.0966303 -0.08192365 40.34610439 -0.09252359 47.59559879 -0.10142139 C51.01336513 -0.10580821 54.43112994 -0.11117411 57.84889507 -0.11641026 C69.2179272 -0.13342331 80.58695838 -0.14791498 91.95600128 -0.155159 C94.90535515 -0.15706876 97.85470901 -0.15898911 100.80406284 -0.16094494 C101.90357755 -0.16167055 101.90357755 -0.16167055 103.02530468 -0.16241082 C114.88562577 -0.17070176 126.7458457 -0.19602245 138.60612267 -0.22852562 C150.79575785 -0.2616576 162.98534175 -0.27961342 175.17502218 -0.28280324 C182.01374812 -0.28496301 188.85232667 -0.29363274 195.69100857 -0.31926441 C202.13013985 -0.34334327 208.56907846 -0.34675864 215.00824833 -0.33650303 C217.36519661 -0.3360087 219.72215812 -0.34229857 222.07906628 -0.35605907 C241.92148629 -0.46537632 257.39263276 1.65624963 272.3975687 15.75531483 C281.94577233 25.6782773 286.88251768 38.39680092 286.78428745 52.06000233 C286.78216503 53.18138851 286.78216503 53.18138851 286.77999973 54.32542896 C286.77442884 56.69923472 286.7618818 59.07294411 286.7491312 61.44672108 C286.74411244 63.06195408 286.73955019 64.67718858 286.73545933 66.2924242 C286.72446895 70.23972663 286.70722452 74.18695754 286.6866312 78.13422108 C287.94217808 78.07621326 289.19772495 78.01820545 290.4913187 77.95843983 C301.14111417 77.60954521 309.56527919 77.42709589 317.7647562 85.07172108 C323.17416696 90.87694238 324.98760793 95.69457975 324.97715855 103.64325428 C324.98387577 104.382159 324.99059299 105.12106373 324.99751377 105.8823595 C325.01645675 108.31664287 325.02041622 110.75064991 325.0225687 113.18500233 C325.02899976 114.88505127 325.03572835 116.58509911 325.04274082 118.28514576 C325.05470473 121.8467614 325.05842262 125.40828012 325.05723667 128.96991444 C325.05703366 133.51939127 325.084321 138.0682422 325.11878109 142.61757088 C325.14109083 146.12903632 325.14507295 149.64035218 325.14401722 153.15188122 C325.14636761 154.82831635 325.15515936 156.50475596 325.17068195 158.18112087 C325.31717827 175.63787844 325.31717827 175.63787844 318.8272562 183.34125233 C318.20334995 183.87105701 317.5794437 184.4008617 316.9366312 184.94672108 C316.01624058 185.76076405 316.01624058 185.76076405 315.0772562 186.59125233 C308.5775824 190.78630323 302.71983325 191.56096772 295.1866312 191.32172108 C294.36420933 191.30818592 293.54178745 191.29465076 292.6944437 191.28070545 C290.69154899 191.24577124 288.68899764 191.19198165 286.6866312 191.13422108 C286.68833994 192.12400782 286.68833994 192.12400782 286.69008321 193.13379025 C286.75725508 232.26473732 286.8087099 271.39567693 286.83982719 310.52666999 C286.84357919 315.22788504 286.84746217 319.92909996 286.85142612 324.63031483 C286.85221306 325.56622014 286.85299999 326.50212545 286.85381076 327.46639153 C286.86685549 342.60937442 286.8905042 357.75232305 286.91808959 372.89528564 C286.94616975 388.43979203 286.96281298 403.98428051 286.96889669 419.52881122 C286.97300771 429.11631366 286.98598002 438.70371927 287.0103806 448.29119191 C287.02627003 454.87064497 287.03102431 461.45004815 287.02713533 468.02951899 C287.02521877 471.82237105 287.02810318 475.61505419 287.04424763 479.40787601 C287.06165993 483.52886414 287.05556759 487.64949581 287.04739475 491.77051258 C287.05613328 492.95731625 287.0648718 494.14411992 287.07387513 495.36688733 C286.98997765 511.06555734 282.3551385 524.56049481 271.4366312 536.07172108 C258.50791336 548.22330287 243.10002747 552.29147922 225.80117893 552.27466297 C224.35086481 552.27911965 224.35086481 552.27911965 222.8712514 552.28366637 C219.64653512 552.2923056 216.42185617 552.29385755 213.19712925 552.29535389 C210.87885046 552.29998535 208.56057242 552.30501046 206.24229527 552.31039906 C199.95504113 552.32349125 193.66779766 552.32996151 187.38053203 552.33440971 C183.4499537 552.33734488 179.51937826 552.34145047 175.58880138 552.34591389 C164.69141053 552.3580151 153.79402286 552.36840033 142.89662552 552.37178898 C141.85221194 552.37211833 141.85221194 552.37211833 140.78669911 552.37245433 C139.73989737 552.37278175 139.73989737 552.37278175 138.67194813 552.37311578 C137.25797856 552.37355923 135.84400898 552.3740058 134.43003941 552.37445545 C133.72867313 552.37467688 133.02730686 552.37489831 132.30468706 552.37512645 C120.94121047 552.37907416 109.57779801 552.39653106 98.21434619 552.41981497 C86.52857903 552.44356484 74.84284401 552.45599242 63.15705234 552.4571569 C56.60352168 552.45820389 50.05008163 552.46408977 43.49657345 552.48197651 C37.33153778 552.49847677 31.16666066 552.50060309 25.00161076 552.4918375 C22.7438022 552.49106825 20.48598504 552.49539503 18.22819805 552.50529575 C15.13628969 552.51805525 12.04493962 552.5121166 8.9530344 552.50171375 C8.06837787 552.50977016 7.18372134 552.51782656 6.27225703 552.5261271 C-7.92259443 552.41510249 -22.9669383 546.45665764 -33.2196188 536.54828358 C-47.68595027 519.86881931 -48.9029976 503.76323856 -48.76747036 482.5255785 C-48.76634069 480.04093411 -48.76697807 477.5562884 -48.76924038 475.07164478 C-48.77014761 469.74444672 -48.75889417 464.41749226 -48.73628902 459.09035778 C-48.70362839 451.38848418 -48.69334773 443.68670507 -48.68833706 435.98476974 C-48.67960631 423.48562333 -48.6530514 410.986582 -48.61512661 398.48749256 C-48.57834877 386.3537088 -48.55006536 374.2199537 -48.53309536 362.08612537 C-48.53204447 361.33681789 -48.53099357 360.58751041 -48.52991083 359.81549665 C-48.52469027 356.05602912 -48.51963553 352.29656139 -48.51466322 348.53709352 C-48.47327042 317.40272633 -48.4025833 286.26848974 -48.3133688 255.13422108 C-49.61894741 255.15307362 -50.92452602 255.17192616 -52.26966763 255.19134998 C-53.99907464 255.20659738 -55.72848576 255.22138432 -57.45790005 255.23578358 C-58.31645596 255.2493993 -59.17501186 255.26301502 -60.05958462 255.27704334 C-66.55618549 255.31759835 -71.67524482 254.55964734 -77.3133688 251.13422108 C-78.40004848 250.48066639 -78.40004848 250.48066639 -79.5086813 249.81390858 C-86.43646546 245.13573698 -90.02176067 239.08247485 -92.3133688 231.13422108 C-92.58079433 227.7465868 -92.58079433 227.7465868 -92.60389614 224.00238514 C-92.61061337 223.31531483 -92.61733059 222.62824451 -92.62425137 221.92035389 C-92.64314766 219.66344302 -92.64715159 217.40683099 -92.6493063 215.14984608 C-92.65574121 213.5681188 -92.66247008 211.98639269 -92.66947842 210.40466785 C-92.68143112 207.09281121 -92.68516143 203.7810587 -92.68397427 200.46918201 C-92.68377146 196.24836423 -92.71104243 192.02822264 -92.74551868 187.80756474 C-92.76788145 184.54050162 -92.77180892 181.27359865 -92.77075481 178.00646687 C-92.77309788 176.45169978 -92.78184761 174.89692739 -92.79741955 173.34223652 C-92.90426618 161.57067804 -91.77191735 151.84606877 -83.37977505 142.89203358 C-77.62415658 137.99594982 -70.55256553 134.98251253 -62.9852438 135.03656483 C-62.18602505 135.03978748 -61.3868063 135.04301014 -60.5633688 135.04633045 C-59.7383688 135.05470936 -58.9133688 135.06308826 -58.0633688 135.07172108 C-57.22290005 135.0762328 -56.3824313 135.08074451 -55.5164938 135.08539295 C-53.44875478 135.09714147 -51.38105255 135.11507586 -49.3133688 135.13422108 C-49.30972317 134.02081348 -49.30607754 132.90740589 -49.30232143 131.76025867 C-49.26525394 121.22706494 -49.20735351 110.69416039 -49.12946606 100.16118717 C-49.09008915 94.74707612 -49.05785279 89.33312534 -49.0423727 83.91888905 C-49.02714153 78.68615021 -48.99258197 73.45385228 -48.94505978 68.22131062 C-48.93031236 66.23284982 -48.92233163 64.24432604 -48.92148495 62.25581074 C-48.90571386 43.77536823 -45.76541101 29.3334863 -32.7586813 15.48968983 C-24.21144259 7.25648705 -12.19651799 0.02940882 0 0 Z " fill="#F9F9F9" transform="translate(1007.3133687973022,224.86577892303467)"/>
<path d="M0 0 C1.29051872 -0.00668677 1.29051872 -0.00668677 2.60710853 -0.01350862 C4.01792649 -0.01323207 4.01792649 -0.01323207 5.45724583 -0.01294994 C6.4601286 -0.01662663 7.46301138 -0.02030332 8.49628454 -0.02409142 C11.86694887 -0.03513085 15.23758236 -0.0389726 18.60826206 -0.04278088 C21.02122693 -0.04904546 23.43419082 -0.05569225 25.84715366 -0.0626936 C33.0966303 -0.08192365 40.34610439 -0.09252359 47.59559879 -0.10142139 C51.01336513 -0.10580821 54.43112994 -0.11117411 57.84889507 -0.11641026 C69.2179272 -0.13342331 80.58695838 -0.14791498 91.95600128 -0.155159 C94.90535515 -0.15706876 97.85470901 -0.15898911 100.80406284 -0.16094494 C101.90357755 -0.16167055 101.90357755 -0.16167055 103.02530468 -0.16241082 C114.88562577 -0.17070176 126.7458457 -0.19602245 138.60612267 -0.22852562 C150.79575785 -0.2616576 162.98534175 -0.27961342 175.17502218 -0.28280324 C182.01374812 -0.28496301 188.85232667 -0.29363274 195.69100857 -0.31926441 C202.13013985 -0.34334327 208.56907846 -0.34675864 215.00824833 -0.33650303 C217.36519661 -0.3360087 219.72215812 -0.34229857 222.07906628 -0.35605907 C241.92148629 -0.46537632 257.39263276 1.65624963 272.3975687 15.75531483 C281.94577233 25.6782773 286.88251768 38.39680092 286.78428745 52.06000233 C286.78216503 53.18138851 286.78216503 53.18138851 286.77999973 54.32542896 C286.77442884 56.69923472 286.7618818 59.07294411 286.7491312 61.44672108 C286.74411244 63.06195408 286.73955019 64.67718858 286.73545933 66.2924242 C286.72446895 70.23972663 286.70722452 74.18695754 286.6866312 78.13422108 C287.94217808 78.07621326 289.19772495 78.01820545 290.4913187 77.95843983 C301.14111417 77.60954521 309.56527919 77.42709589 317.7647562 85.07172108 C323.17416696 90.87694238 324.98760793 95.69457975 324.97715855 103.64325428 C324.98387577 104.382159 324.99059299 105.12106373 324.99751377 105.8823595 C325.01645675 108.31664287 325.02041622 110.75064991 325.0225687 113.18500233 C325.02899976 114.88505127 325.03572835 116.58509911 325.04274082 118.28514576 C325.05470473 121.8467614 325.05842262 125.40828012 325.05723667 128.96991444 C325.05703366 133.51939127 325.084321 138.0682422 325.11878109 142.61757088 C325.14109083 146.12903632 325.14507295 149.64035218 325.14401722 153.15188122 C325.14636761 154.82831635 325.15515936 156.50475596 325.17068195 158.18112087 C325.31717827 175.63787844 325.31717827 175.63787844 318.8272562 183.34125233 C318.20334995 183.87105701 317.5794437 184.4008617 316.9366312 184.94672108 C316.01624058 185.76076405 316.01624058 185.76076405 315.0772562 186.59125233 C308.5775824 190.78630323 302.71983325 191.56096772 295.1866312 191.32172108 C294.36420933 191.30818592 293.54178745 191.29465076 292.6944437 191.28070545 C290.69154899 191.24577124 288.68899764 191.19198165 286.6866312 191.13422108 C286.68833994 192.12400782 286.68833994 192.12400782 286.69008321 193.13379025 C286.75725508 232.26473732 286.8087099 271.39567693 286.83982719 310.52666999 C286.84357919 315.22788504 286.84746217 319.92909996 286.85142612 324.63031483 C286.85221306 325.56622014 286.85299999 326.50212545 286.85381076 327.46639153 C286.86685549 342.60937442 286.8905042 357.75232305 286.91808959 372.89528564 C286.94616975 388.43979203 286.96281298 403.98428051 286.96889669 419.52881122 C286.97300771 429.11631366 286.98598002 438.70371927 287.0103806 448.29119191 C287.02627003 454.87064497 287.03102431 461.45004815 287.02713533 468.02951899 C287.02521877 471.82237105 287.02810318 475.61505419 287.04424763 479.40787601 C287.06165993 483.52886414 287.05556759 487.64949581 287.04739475 491.77051258 C287.05613328 492.95731625 287.0648718 494.14411992 287.07387513 495.36688733 C286.98997765 511.06555734 282.3551385 524.56049481 271.4366312 536.07172108 C258.50791336 548.22330287 243.10002747 552.29147922 225.80117893 552.27466297 C224.35086481 552.27911965 224.35086481 552.27911965 222.8712514 552.28366637 C219.64653512 552.2923056 216.42185617 552.29385755 213.19712925 552.29535389 C210.87885046 552.29998535 208.56057242 552.30501046 206.24229527 552.31039906 C199.95504113 552.32349125 193.66779766 552.32996151 187.38053203 552.33440971 C183.4499537 552.33734488 179.51937826 552.34145047 175.58880138 552.34591389 C164.69141053 552.3580151 153.79402286 552.36840033 142.89662552 552.37178898 C141.85221194 552.37211833 141.85221194 552.37211833 140.78669911 552.37245433 C139.73989737 552.37278175 139.73989737 552.37278175 138.67194813 552.37311578 C137.25797856 552.37355923 135.84400898 552.3740058 134.43003941 552.37445545 C133.72867313 552.37467688 133.02730686 552.37489831 132.30468706 552.37512645 C120.94121047 552.37907416 109.57779801 552.39653106 98.21434619 552.41981497 C86.52857903 552.44356484 74.84284401 552.45599242 63.15705234 552.4571569 C56.60352168 552.45820389 50.05008163 552.46408977 43.49657345 552.48197651 C37.33153778 552.49847677 31.16666066 552.50060309 25.00161076 552.4918375 C22.7438022 552.49106825 20.48598504 552.49539503 18.22819805 552.50529575 C15.13628969 552.51805525 12.04493962 552.5121166 8.9530344 552.50171375 C8.06837787 552.50977016 7.18372134 552.51782656 6.27225703 552.5261271 C-7.92259443 552.41510249 -22.9669383 546.45665764 -33.2196188 536.54828358 C-47.68595027 519.86881931 -48.9029976 503.76323856 -48.76747036 482.5255785 C-48.76634069 480.04093411 -48.76697807 477.5562884 -48.76924038 475.07164478 C-48.77014761 469.74444672 -48.75889417 464.41749226 -48.73628902 459.09035778 C-48.70362839 451.38848418 -48.69334773 443.68670507 -48.68833706 435.98476974 C-48.67960631 423.48562333 -48.6530514 410.986582 -48.61512661 398.48749256 C-48.57834877 386.3537088 -48.55006536 374.2199537 -48.53309536 362.08612537 C-48.53204447 361.33681789 -48.53099357 360.58751041 -48.52991083 359.81549665 C-48.52469027 356.05602912 -48.51963553 352.29656139 -48.51466322 348.53709352 C-48.47327042 317.40272394 -48.40177359 286.26849432 -48.3133688 255.13422108 C-42.0433688 255.13422108 -35.7733688 255.13422108 -29.3133688 255.13422108 C-29.30750256 258.23150593 -29.30163631 261.32879078 -29.29559231 264.51993275 C-29.24038153 292.94232409 -29.17040366 321.3646395 -29.08438252 349.78695308 C-29.07311476 353.51436239 -29.06197624 357.24177208 -29.05091763 360.96918201 C-29.04871394 361.71122199 -29.04651026 362.45326196 -29.0442398 363.217788 C-29.00889635 375.22259436 -28.98401556 387.22740066 -28.96302178 399.23223971 C-28.94123618 411.55624478 -28.90815961 423.88018252 -28.86466724 436.20413029 C-28.83819797 443.80470728 -28.82046785 451.40520041 -28.81402276 459.00582118 C-28.80813033 464.84033677 -28.78650575 470.67472858 -28.75909328 476.50918484 C-28.75031271 478.89800601 -28.74659051 481.28685209 -28.74836063 483.67568874 C-28.7500173 486.94356931 -28.73327975 490.21087186 -28.71209621 493.47867298 C-28.71694379 494.41839069 -28.72179137 495.3581084 -28.72678584 496.32630241 C-28.61997861 506.34767172 -26.0477372 515.52714835 -19.3133688 523.13422108 C-10.15233128 530.67955533 -1.26286448 532.28796097 10.30706882 532.26793385 C11.75081105 532.27133218 11.75081105 532.27133218 13.22371978 532.27479917 C16.44550002 532.28112396 19.66723802 532.28031078 22.88902378 532.27948475 C25.20040027 532.28247719 27.51177626 532.28587991 29.82315159 532.28966236 C36.10006258 532.29849793 42.37695994 532.30084029 48.65387654 532.30147815 C53.89488802 532.30242789 59.13589632 532.30610695 64.37690657 532.30965024 C76.03668986 532.31732807 87.6964665 532.32031901 99.35625211 532.31964489 C100.40501315 532.31958496 100.40501315 532.31958496 101.47496128 532.31952381 C102.17499256 532.31948293 102.87502385 532.31944205 103.5962682 532.31939993 C114.93857487 532.31899357 126.28084832 532.32856146 137.62314538 532.34266218 C149.27945959 532.35703852 160.93575609 532.36374868 172.59207934 532.3630684 C179.13213951 532.3628135 185.67216208 532.36566042 192.21221447 532.37624645 C198.36406051 532.38593224 204.51583305 532.38600325 210.66768169 532.37872982 C212.92310029 532.37768458 215.17852348 532.38004323 217.43393421 532.38609028 C220.51778983 532.39382172 223.60139238 532.38915763 226.68524265 532.38145924 C228.01717591 532.38917458 228.01717591 532.38917458 229.37601691 532.39704579 C239.59872439 532.34083138 248.89835047 530.36308217 256.66709995 523.34515858 C263.9149342 515.58734879 266.79554779 507.08694022 266.8252964 496.53893185 C266.83077085 495.44364953 266.83624529 494.34836722 266.84188563 493.21989453 C266.84286373 492.02728666 266.84384184 490.83467879 266.84484959 489.60593128 C266.85225655 487.69326428 266.85225655 487.69326428 266.85981315 485.74195755 C266.87336114 482.20962739 266.88080292 478.67730684 266.88723981 475.14495754 C266.89525846 471.33315504 266.90895119 467.52137241 266.92195225 463.70958424 C266.94369423 457.10769874 266.96184704 450.50581122 266.97755718 443.90390873 C267.00027657 434.35868419 267.02841653 424.81348168 267.05787646 415.26827584 C267.10552701 399.78154336 267.14879807 384.29480186 267.18931675 368.8080492 C267.22868459 353.7647478 267.2701139 338.7214544 267.31431675 323.67816639 C267.31840316 322.28709746 267.31840316 322.28709746 267.32257212 320.86792614 C267.33625181 316.21550368 267.34997204 311.56308135 267.36371243 306.91065907 C267.47763735 268.31852974 267.58445551 229.72638321 267.6866312 191.13422108 C260.03609003 191.03272083 252.38682315 190.98607736 244.73566723 191.00725079 C241.18157341 191.01540965 237.62954228 191.00549117 234.07579136 190.95258045 C229.97878416 190.89240739 225.88557328 190.91388617 221.7881937 190.93890858 C219.89697285 190.89429996 219.89697285 190.89429996 217.96754551 190.84879017 C210.8532743 190.96295988 207.15598511 191.8902305 202.03965855 197.00189686 C200.5752897 198.70125013 199.12292488 200.41107334 197.6866312 202.13422108 C196.46214929 203.26662033 195.21714652 204.37809367 193.9366312 205.44672108 C191.3249971 207.67460486 188.78776735 209.9619314 186.2881937 212.31390858 C185.67556675 212.88971668 185.0629398 213.46552479 184.43174839 214.05878162 C183.21291799 215.20776 181.99725592 216.36011152 180.78526402 217.51630116 C171.58213094 226.17830247 171.58213094 226.17830247 166.9991312 226.07172108 C164.388365 225.01330235 163.34574415 224.40897786 161.6866312 222.13422108 C161.34605503 218.94794178 161.34605503 218.94794178 161.39366245 215.06000233 C161.3979073 214.37616978 161.40215214 213.69233723 161.40652561 212.98778248 C161.42329767 210.80702546 161.46094464 208.62719799 161.4991312 206.44672108 C161.51418006 204.96691673 161.52786812 203.48709788 161.54014683 202.00726795 C161.57319551 198.38261771 161.62496674 194.75851014 161.6866312 191.13422108 C161.01333775 191.15234852 160.34004429 191.17047596 159.646348 191.18915272 C158.31083897 191.2103014 158.31083897 191.2103014 156.94834995 191.23187733 C156.0688065 191.25000477 155.18926304 191.26813221 154.28306675 191.28680897 C147.5936987 190.89368673 142.88415981 186.77270458 138.22959995 182.30609608 C134.28627823 176.75549638 133.31015769 171.05422901 133.28257847 164.37640858 C133.27571522 163.64681934 133.26885197 162.91723011 133.26178074 162.16553211 C133.24364161 159.77989102 133.24733091 157.39491558 133.25303745 155.00922108 C133.24846997 153.33587909 133.24316272 151.66253897 133.23715305 149.98920155 C133.22824768 146.49254168 133.2306162 142.99611054 133.24058628 139.49945545 C133.25208234 135.03410015 133.231842 130.56953492 133.20266914 126.10428333 C133.18426414 122.65199295 133.18460796 119.19989052 133.19030666 115.74756336 C133.1904593 114.10184081 133.18446281 112.45610506 133.17201519 110.81042957 C133.05965266 93.52441258 133.05965266 93.52441258 139.58116245 85.92718983 C140.21409214 85.39738514 140.84702183 84.86758045 141.4991312 84.32172108 C142.12432652 83.77902576 142.74952183 83.23633045 143.39366245 82.67718983 C150.25346804 78.06113666 155.94541072 77.71052989 164.03794956 77.79364491 C165.72197376 77.79298779 165.72197376 77.79298779 167.44001865 77.79231739 C171.13568351 77.79440055 174.83088974 77.8177101 178.52647495 77.84125233 C181.0947962 77.84684994 183.66312066 77.85111926 186.23144627 77.85411549 C192.29097143 77.86438351 198.35030848 77.88800639 204.40976292 77.91816396 C211.31182641 77.95176512 218.21389795 77.96820829 225.11602294 77.98325026 C239.30631329 78.01455783 253.49646643 78.06728249 267.6866312 78.13422108 C267.64206524 73.61692313 267.57181187 69.10092294 267.47911167 64.58441639 C267.45112045 63.05229941 267.42979874 61.52004389 267.41563511 59.9877367 C267.29079812 47.2377194 265.85070821 37.58462694 256.7647562 28.04437733 C248.57438 20.51600522 239.53818985 19.82852834 228.91709995 19.86859608 C227.79974964 19.86668262 226.68239933 19.86476917 225.53118992 19.86279774 C223.18041348 19.86144145 220.82962942 19.86509885 218.47886753 19.87347889 C214.86891668 19.88423662 211.2594578 19.87353867 207.64952183 19.86078358 C205.36371343 19.86210428 203.07790535 19.86466483 200.79209995 19.86859608 C199.16717876 19.86252338 199.16717876 19.86252338 197.50943089 19.85632801 C196.51111744 19.86263233 195.51280399 19.86893665 194.48423862 19.87543201 C193.16355633 19.87781879 193.16355633 19.87781879 191.81619358 19.88025379 C189.47129336 19.93729451 189.47129336 19.93729451 187.6866312 22.13422108 C187.32727903 24.03935797 187.0462081 25.95973303 186.8116312 27.88422108 C185.77379292 34.5583196 184.1149872 38.3005645 178.6241312 42.44672108 C175.04090653 44.50516929 172.45541612 45.25858642 168.39349461 45.2813921 C167.07942127 45.29212505 167.07942127 45.29212505 165.738801 45.30307484 C164.78032764 45.30576374 163.82185429 45.30845264 162.83433628 45.31122303 C161.31676731 45.32107983 161.31676731 45.32107983 159.76854038 45.33113575 C156.41441367 45.35087459 153.06033177 45.36253335 149.70616245 45.37250233 C148.56047983 45.37657785 147.41479721 45.38065338 146.23439693 45.38485241 C140.16924183 45.40571668 134.10410936 45.42001629 128.03892612 45.42938709 C121.77883874 45.44044588 115.51910736 45.47483908 109.25914574 45.51455879 C104.44207194 45.54072493 99.62508291 45.54907901 94.8079443 45.55266857 C92.50072103 45.55753532 90.19350156 45.56915174 87.88634777 45.58770657 C84.65257937 45.6120947 81.4197313 45.61113305 78.18589878 45.60419178 C76.76337048 45.62340687 76.76337048 45.62340687 75.31210423 45.64301014 C68.67141274 45.5912078 63.15340107 44.34426882 58.161726 39.72223854 C53.69350695 34.67344773 52.4380643 29.44715983 51.15147495 23.02484608 C50.8598037 21.13478357 50.8598037 21.13478357 49.6866312 20.13422108 C48.17469832 20.02539398 46.65774968 19.98518117 45.14195347 19.97308826 C43.68892574 19.95867695 43.68892574 19.95867695 42.20654392 19.94397449 C41.14938679 19.93972462 40.09222965 19.93547474 39.00303745 19.93109608 C37.91836689 19.925396 36.83369633 19.91969593 35.71615696 19.91382313 C33.41018244 19.90435067 31.10419424 19.89783029 28.79820347 19.8939867 C25.29527025 19.88434803 21.79294047 19.85337357 18.29014683 19.82172108 C16.04861385 19.8151845 13.80707667 19.80993661 11.56553745 19.80609608 C10.5265984 19.79374928 9.48765934 19.78140247 8.41723728 19.76868153 C-2.03142889 19.80013164 -11.33342079 22.11737025 -19.3133688 29.13422108 C-26.133905 37.04187332 -28.76442779 45.94106662 -28.74574184 56.23407459 C-28.75593349 57.09370304 -28.76612514 57.95333149 -28.77662563 58.83900928 C-28.80653616 61.64711682 -28.81598771 64.45488204 -28.82508755 67.26312733 C-28.84195054 69.22325727 -28.86010294 71.18337651 -28.87948513 73.14348316 C-28.92681531 78.27750776 -28.95673431 83.41148892 -28.98292446 88.54565907 C-29.01281596 93.79466799 -29.05931666 99.04352753 -29.10438442 104.2924242 C-29.19022433 114.57296184 -29.25611829 124.85348444 -29.3133688 135.13422108 C-35.5833688 135.13422108 -41.8533688 135.13422108 -48.3133688 135.13422108 C-48.40401939 123.47655535 -48.47728591 111.81912672 -48.52061749 100.16118717 C-48.54142265 94.74695374 -48.56961027 89.3329756 -48.61512661 83.91888905 C-48.65883757 78.68633765 -48.68255898 73.45403061 -48.69287777 68.22131062 C-48.70022404 66.23277158 -48.71456869 64.24424472 -48.73628902 62.25581074 C-48.93045021 43.7310129 -45.79419951 29.36412753 -32.7586813 15.48968983 C-24.21144259 7.25648705 -12.19651799 0.02940882 0 0 Z " fill="#2D2D2E" transform="translate(1007.3133687973022,224.86577892303467)"/>
<path d="M0 0 C1.19206055 -0.00193359 1.19206055 -0.00193359 2.40820312 -0.00390625 C3.22869141 -0.00003906 4.04917969 0.00382812 4.89453125 0.0078125 C5.72662109 0.00394531 6.55871094 0.00007813 7.41601562 -0.00390625 C13.58036033 0.00614158 13.58036033 0.00614158 14.70703125 1.1328125 C16.1105186 1.23141381 17.51883602 1.26360187 18.92578125 1.265625 C19.77527344 1.26691406 20.62476563 1.26820313 21.5 1.26953125 C22.39332031 1.26566406 23.28664063 1.26179688 24.20703125 1.2578125 C25.54701172 1.26361328 25.54701172 1.26361328 26.9140625 1.26953125 C28.18830078 1.26759766 28.18830078 1.26759766 29.48828125 1.265625 C30.27267578 1.26449707 31.05707031 1.26336914 31.86523438 1.26220703 C33.72456113 1.33388692 33.72456113 1.33388692 34.70703125 0.1328125 C36.10110183 0.03087706 37.50027353 -0.00236548 38.89805603 -0.00762939 C39.80212189 -0.01333954 40.70618774 -0.01904968 41.63764954 -0.02493286 C42.63757431 -0.02605072 43.63749908 -0.02716858 44.66772461 -0.02832031 C45.7149469 -0.03328522 46.76216919 -0.03825012 47.84112549 -0.04336548 C51.3263819 -0.05803944 54.81159269 -0.06480017 58.296875 -0.0703125 C60.71529645 -0.07606265 63.13371787 -0.08182039 65.55213928 -0.08758545 C70.63575453 -0.09811235 75.71935389 -0.10394296 80.80297852 -0.10742188 C87.30275275 -0.11288949 93.80231568 -0.13687333 100.30202389 -0.16539383 C105.30447489 -0.1840688 110.30687569 -0.18922855 115.3093586 -0.19075775 C117.70423085 -0.19377726 120.09910236 -0.201782 122.49394035 -0.21494293 C125.85671595 -0.23209348 129.21898492 -0.23010023 132.58178711 -0.22363281 C133.5634938 -0.2328476 134.5452005 -0.24206238 135.55665588 -0.2515564 C145.05868179 -0.19462105 154.28107461 1.90607867 161.70703125 8.1328125 C168.15549722 15.01371997 170.94034039 20.90799424 170.99755859 30.44824219 C171.00427582 31.15481964 171.01099304 31.86139709 171.01791382 32.58938599 C171.03681592 34.91122594 171.04081433 37.23277551 171.04296875 39.5546875 C171.04940321 41.18125524 171.05613205 42.80782184 171.06314087 44.43438721 C171.07509499 47.84039998 171.07882373 51.24631149 171.07763672 54.65234375 C171.07743389 58.99422203 171.10470624 63.33544311 171.13918114 67.67716599 C171.16153822 71.03687458 171.16547154 74.39642737 171.16441727 77.7562027 C171.16676113 79.35562652 171.17551545 80.95505543 171.191082 82.55440521 C171.27951946 92.58107064 170.86294143 101.24156509 164.8828125 109.71875 C157.06272267 117.22734778 149.33510999 120.18359423 138.515625 120.1484375 C137.61513428 120.14618164 136.71464355 120.14392578 135.78686523 120.14160156 C135.10052002 120.13870117 134.4141748 120.13580078 133.70703125 120.1328125 C133.71750488 120.90995605 133.72797852 121.68709961 133.73876953 122.48779297 C133.78023407 125.9944335 133.80632703 129.50102256 133.83203125 133.0078125 C133.84878906 134.23113281 133.86554688 135.45445312 133.8828125 136.71484375 C133.88925781 137.88144531 133.89570312 139.04804688 133.90234375 140.25 C133.91281738 141.32878418 133.92329102 142.40756836 133.93408203 143.51904297 C133.70703125 146.1328125 133.70703125 146.1328125 131.70703125 148.1328125 C128.95605469 148.59741211 128.95605469 148.59741211 125.70703125 148.1328125 C123.43823566 146.37665937 121.66060638 144.7668647 119.72265625 142.69921875 C118.91015411 141.87042458 118.91015411 141.87042458 118.08123779 141.02488708 C116.3584484 139.2619963 114.65749812 137.47972038 112.95703125 135.6953125 C111.23810489 133.91899254 109.51498906 132.14685975 107.78997803 130.37644958 C106.7192608 129.27458681 105.65290395 128.16846683 104.59136963 127.05775452 C101.93269753 124.22985021 101.93269753 124.22985021 98.70703125 122.1328125 C98.70703125 121.4728125 98.70703125 120.8128125 98.70703125 120.1328125 C96.80475266 120.14613617 96.80475266 120.14613617 94.86404419 120.159729 C82.88826715 120.24096245 70.91254633 120.30084883 58.93655586 120.34006119 C52.78017786 120.36089866 46.62402303 120.38914655 40.46777344 120.43457031 C34.52201023 120.47816438 28.57646113 120.50197847 22.63055038 120.51232147 C20.36683662 120.51968847 18.10313401 120.53407436 15.83951187 120.55573273 C12.65854193 120.58494637 9.47844667 120.58876093 6.29736328 120.58691406 C5.37018997 120.60129517 4.44301666 120.61567627 3.48774719 120.63049316 C-6.32557527 120.56920305 -15.20845915 117.01220267 -22.29296875 110.1328125 C-27.37489094 103.66726263 -29.53263274 97.24460265 -29.58349609 89.00097656 C-29.59021332 88.31390625 -29.59693054 87.62683594 -29.60385132 86.91894531 C-29.62274762 84.66203445 -29.62675154 82.40542241 -29.62890625 80.1484375 C-29.63534117 78.56671022 -29.64207003 76.98498412 -29.64907837 75.40325928 C-29.66103107 72.09140263 -29.66476139 68.77965012 -29.66357422 65.46777344 C-29.66337141 61.24695566 -29.69064239 57.02681406 -29.72511864 52.80615616 C-29.7474814 49.53909304 -29.75140887 46.27219007 -29.75035477 43.00505829 C-29.75269784 41.4502912 -29.76144756 39.89551881 -29.7770195 38.34082794 C-29.88386613 26.56926947 -28.7515173 16.8446602 -20.359375 7.890625 C-14.61191852 3.00148432 -7.55220791 0.01172053 0 0 Z " fill="#D8D8D8" transform="translate(944.29296875,359.8671875)"/>
<path d="M0 0 C1.87353149 -0.01279495 1.87353149 -0.01279495 3.78491211 -0.02584839 C5.16139234 -0.02514942 6.53787247 -0.0242264 7.91435242 -0.02310181 C9.37007491 -0.02908898 10.82579423 -0.03589496 12.2815094 -0.04345703 C16.22998868 -0.06110614 20.17838123 -0.06581198 24.12689614 -0.0670886 C26.59592032 -0.0685115 29.06492255 -0.07278374 31.53394127 -0.07808304 C40.15376049 -0.09658045 48.77351791 -0.10475411 57.39335632 -0.10317993 C65.41807586 -0.10197894 73.44252625 -0.12307351 81.46717769 -0.15466726 C88.36502382 -0.18085325 95.26278218 -0.19154624 102.16067761 -0.19026911 C106.27679388 -0.18976011 110.39267096 -0.19540855 114.50873756 -0.21662521 C118.38221975 -0.23604667 122.25523556 -0.23610576 126.12873459 -0.22159195 C127.54604845 -0.21950749 128.9633918 -0.22418312 130.38065529 -0.23631287 C138.26865478 -0.29942145 144.10959138 -0.12815463 150.79594421 4.26742554 C155.26774246 9.08320827 155.9240798 11.78207554 155.97294617 18.2840271 C155.97951736 19.00619919 155.98608856 19.72837128 155.99285889 20.47242737 C156.01260402 22.86763612 156.0242582 25.26278208 156.03422546 27.65805054 C156.03830099 28.47616966 156.04237652 29.29428879 156.04657555 30.1371994 C156.06744322 34.46885425 156.08174091 38.80047737 156.09111023 43.13217163 C156.10216563 47.60230766 156.13655313 52.07194465 156.17628193 56.54190445 C156.20245563 59.98207511 156.2108028 63.42212714 156.21439171 66.86238861 C156.21925713 68.50978713 156.23086992 70.15718036 156.2494297 71.80448151 C156.27383429 74.11446871 156.27285419 76.42316862 156.26591492 78.73324585 C156.27178116 80.04625671 156.2776474 81.35926758 156.28369141 82.71206665 C155.5555448 88.01978046 153.14319575 91.05161317 149.23344421 94.57992554 C146.01940375 96.80503047 143.57265994 97.39198743 139.75509644 97.39872742 C138.9350563 97.4027356 138.11501617 97.40674377 137.27012634 97.41087341 C136.37396606 97.4103447 135.47780579 97.40981598 134.55448914 97.40927124 C133.6078389 97.41274567 132.66118866 97.41622009 131.68585205 97.4197998 C129.62822241 97.42715599 127.57058484 97.43250211 125.51294518 97.43609047 C122.25551278 97.44325274 118.99823129 97.45891756 115.74084473 97.47743225 C106.4785519 97.52991357 97.21634153 97.57788338 87.9539032 97.59335327 C82.28983536 97.60343408 76.62614679 97.6327614 70.96222878 97.67467308 C68.80412476 97.68698644 66.64596719 97.69210373 64.48782921 97.68987465 C61.46666867 97.68752202 58.44659636 97.70968594 55.42558289 97.73739624 C54.5354953 97.73079483 53.64540771 97.72419342 52.72834778 97.71739197 C44.50124828 97.84119723 40.24972655 101.64389535 34.35844421 107.14242554 C33.85764343 107.60640747 33.35684265 108.0703894 32.84086609 108.5484314 C29.81654588 111.35587359 26.81891241 114.19114623 23.82328796 117.02914429 C23.15418396 117.66030151 22.48507996 118.29145874 21.79570007 118.94174194 C20.48374507 120.18049912 19.17581238 121.42353314 17.87236023 122.67123413 C17.26964294 123.24051636 16.66692566 123.80979858 16.04594421 124.39633179 C15.51485046 124.90236938 14.98375671 125.40840698 14.43656921 125.92977905 C12.79594421 127.26742554 12.79594421 127.26742554 8.79594421 129.26742554 C8.46594421 119.36742554 8.13594421 109.46742554 7.79594421 99.26742554 C4.70016477 98.23549906 2.23058587 98.06397264 -1.01655579 97.89242554 C-7.45321257 97.37283999 -11.68041742 96.20376385 -16.01655579 91.26742554 C-19.27068428 86.80462074 -19.33616152 83.72872686 -19.3651886 78.32089233 C-19.3701535 77.61808136 -19.37511841 76.91527039 -19.38023376 76.19116211 C-19.39483703 73.86631286 -19.40165465 71.54153187 -19.40718079 69.21664429 C-19.41293419 67.59862771 -19.4186919 65.98061115 -19.42445374 64.3625946 C-19.4349588 60.96897057 -19.44080455 57.57537019 -19.44429016 54.18173218 C-19.44977084 49.84062773 -19.47379166 45.49983757 -19.50226212 41.1588316 C-19.52091926 37.81559853 -19.52609575 34.47244065 -19.52762604 31.12915993 C-19.53064666 29.52922665 -19.53865524 27.9292945 -19.55181122 26.32941246 C-19.56893495 24.08674851 -19.56697635 21.84484578 -19.5605011 19.60214233 C-19.56414673 18.32767746 -19.56779236 17.05321259 -19.57154846 15.74012756 C-19.04234177 10.7392737 -17.47053296 7.46724602 -13.82905579 4.01742554 C-9.20621819 0.93553381 -5.54287912 0.01714189 0 0 Z " fill="#F8F8F8" transform="translate(1168.2040557861328,310.7325744628906)"/>
<path d="M0 0 C1.23662888 -0.00525696 2.47325775 -0.01051392 3.74736023 -0.01593018 C7.12360364 -0.02683951 10.49929242 -0.02432742 13.87550426 -0.01479292 C17.41917175 -0.00716661 20.9628165 -0.01425031 24.50648499 -0.01895142 C30.45716577 -0.02440107 36.40773466 -0.01723894 42.35839844 -0.00292969 C49.22320659 0.01338788 56.08774727 0.00811177 62.95254892 -0.0084089 C68.86106962 -0.02205536 74.76951014 -0.02392782 80.67804152 -0.0160929 C84.2005101 -0.01143271 87.72285328 -0.01074548 91.24531364 -0.02070236 C95.17536558 -0.03103635 99.10512188 -0.01668309 103.03515625 0 C104.19229126 -0.00607269 105.34942627 -0.01214539 106.54162598 -0.0184021 C115.22195832 0.04972251 122.39493528 1.31776618 128.85635376 7.54136658 C135.61489509 14.77332248 136.32782376 22.01538395 136.24633789 31.60302734 C136.25112152 32.85394669 136.25590515 34.10486603 136.26083374 35.39369202 C136.2650863 38.69953795 136.24512246 42.00418797 136.21704102 45.30987549 C136.20728871 47.3229342 136.21700156 49.33490172 136.23413086 51.34790039 C136.26518719 55.245948 136.26123325 59.14241057 136.24633789 63.04052734 C136.25645905 64.2293602 136.2665802 65.41819305 136.27700806 66.64305115 C136.15052963 75.72238405 134.19831367 82.60777993 127.83227539 89.26318359 C120.15721975 94.28148921 114.72370725 95.65659441 105.58227539 95.38818359 C105.60584106 96.40972534 105.60584106 96.40972534 105.62988281 97.4519043 C105.69220761 100.53474641 105.73125797 103.61745603 105.76977539 106.70068359 C105.79491211 107.77253906 105.82004883 108.84439453 105.84594727 109.94873047 C105.86044922 111.49077148 105.86044922 111.49077148 105.87524414 113.06396484 C105.89880981 114.4857605 105.89880981 114.4857605 105.92285156 115.9362793 C105.58227539 118.38818359 105.58227539 118.38818359 104.23193359 120.18188477 C102.58227539 121.38818359 102.58227539 121.38818359 99.89477539 122.01318359 C93.45370724 120.79788772 89.35427521 115.3666881 85.20727539 110.57568359 C84.38361732 109.64068527 84.38361732 109.64068527 83.5433197 108.6867981 C81.58227539 106.38818359 81.58227539 106.38818359 79.7099762 103.8288269 C76.2173533 99.57480793 73.07072636 96.35706313 67.50363159 95.49932861 C62.51818239 95.07537833 57.54326641 95.21204646 52.54711914 95.33349609 C50.69968188 95.33987774 48.85222119 95.34124534 47.004776 95.33786011 C42.16250243 95.3397031 37.3226732 95.39756724 32.48101807 95.47113037 C24.73105655 95.58118919 16.98071342 95.61314525 9.23007393 95.63048935 C6.5368962 95.64570083 3.84534459 95.68957053 1.15257263 95.73733521 C-8.47427538 95.84643332 -15.55836405 95.44233668 -23.68725586 89.81787109 C-30.65145228 82.80078204 -32.8519552 75.02099863 -32.99916077 65.27856445 C-32.9942009 64.18036377 -32.98924103 63.08216309 -32.98413086 61.95068359 C-32.99032944 60.78996338 -32.99652802 59.62924316 -33.00291443 58.43334961 C-33.00998053 55.99284702 -33.00689518 53.5522959 -32.99414062 51.11181641 C-32.98026257 47.39834183 -33.0144143 43.68738406 -33.05249023 39.97412109 C-33.05344149 37.59130798 -33.05158229 35.20849175 -33.04663086 32.82568359 C-33.05988907 31.72748291 -33.07314728 30.62928223 -33.08680725 29.49780273 C-32.98769542 21.2095211 -31.16643809 14.43636523 -25.42799377 8.23950195 C-17.56948533 0.78303662 -10.48188949 -0.05491333 0 0 Z " fill="#3D86F6" transform="translate(1122.417724609375,501.61181640625)"/>
<path d="M0 0 C2.75569447 2.18159145 4.43588747 3.87177494 6 7 C6.10871514 9.62161289 6.15731977 12.21706123 6.16113281 14.83935547 C6.16858017 16.05446053 6.16858017 16.05446053 6.17617798 17.29411316 C6.19082777 19.98514652 6.19760986 22.67612074 6.203125 25.3671875 C6.20887862 27.2413025 6.21463633 29.11541749 6.22039795 30.98953247 C6.23091899 34.92889683 6.23675295 38.86824075 6.24023438 42.80761719 C6.24569053 47.82859052 6.26965168 52.84928872 6.29820633 57.87017632 C6.31694552 61.74808505 6.3220445 65.62592939 6.32357025 69.50387955 C6.32657708 71.3528403 6.33453816 73.20180045 6.34775543 75.0507164 C6.47706211 94.54715177 3.32499915 111.33714373 -10.82421875 125.890625 C-11.54222656 126.58671875 -12.26023437 127.2828125 -13 128 C-13.56332031 128.57234375 -14.12664062 129.1446875 -14.70703125 129.734375 C-25.82633962 140.23143497 -39.73978168 142.78040353 -54.421875 142.37109375 C-66.0124105 141.69199857 -75.29349781 136.34077635 -84 129 C-84.64453125 128.47921875 -85.2890625 127.9584375 -85.953125 127.421875 C-95.92579814 118.52732869 -101.58881984 104.96669583 -102.34375 91.8828125 C-102.97369144 74.90070196 -99.27937514 62.4311143 -88.3828125 49.0078125 C-80.94783444 41.00364951 -71.346383 36.11900687 -61 33 C-60.39027344 32.80664062 -59.78054688 32.61328125 -59.15234375 32.4140625 C-43.94652701 29.48880556 -28.69855899 33.534294 -16 42 C-16.0314209 40.50218994 -16.0314209 40.50218994 -16.06347656 38.97412109 C-16.136167 35.25063557 -16.1819042 31.5272121 -16.21972656 27.80322266 C-16.23977627 26.19504226 -16.26702364 24.58693417 -16.30175781 22.97900391 C-16.35057264 20.6602998 -16.37303428 18.34256375 -16.390625 16.0234375 C-16.41127014 15.31069672 -16.43191528 14.59795593 -16.45318604 13.86361694 C-16.45545291 8.7595939 -15.2267842 5.91365949 -12 2 C-7.99745384 -0.66836411 -4.70686701 -0.8340238 0 0 Z " fill="#7B7C7D" transform="translate(403,351)"/>
<path d="M0 0 C8.46286082 6.10955193 15.41435638 13.64503526 19.921875 23.109375 C20.33308594 23.94082031 20.74429688 24.77226563 21.16796875 25.62890625 C23.97369269 32.415069 24.30246966 38.98681368 24.359375 46.234375 C24.36952637 47.15250977 24.37967773 48.07064453 24.39013672 49.01660156 C24.21353291 62.90114363 18.80559713 74.78645467 9.3046875 84.7890625 C-3.49809818 97.25603741 -17.24121385 101.54102554 -34.78271484 101.47290039 C-42.17169467 101.33428771 -48.39285322 100.42746878 -55.078125 97.109375 C-56.09003906 96.61179687 -57.10195312 96.11421875 -58.14453125 95.6015625 C-71.91311343 88.19168724 -80.64606479 77.2689257 -85.515625 62.421875 C-89.62043638 46.3224849 -87.18241802 31.11601486 -78.83203125 16.73828125 C-60.9587913 -10.0516753 -27.10681017 -16.7804063 0 0 Z " fill="#F7F7F7" transform="translate(275.078125,566.890625)"/>
<path d="M0 0 C11.51320355 8.65603556 19.94372287 21.3032371 22.68359375 35.5703125 C24.52891828 49.74058235 21.71119589 63.92302943 14 76 C11.21739704 79.57835645 8.22322303 82.81671071 5 86 C4.44699219 86.57492187 3.89398438 87.14984375 3.32421875 87.7421875 C-6.96166677 97.59417711 -21.02535036 100.42583045 -34.70727539 100.36352539 C-48.79130745 100.05738036 -61.44452004 94.49227154 -71.75 84.875 C-83.03937635 72.74557931 -88.67721113 58.38525808 -88.4753418 41.85595703 C-87.74659427 25.47017942 -79.58754162 12.78573654 -67.8046875 1.98828125 C-47.99699603 -14.37613769 -20.96175275 -13.95373735 0 0 Z " fill="#68696B" transform="translate(271,393)"/>
<path d="M0 0 C11.45463037 8.17907682 18.43646547 20.93343635 21.59375 34.44140625 C22.00385979 37.91275122 22.07229832 41.32342082 22.03125 44.81640625 C22.02295166 45.73542725 22.01465332 46.65444824 22.00610352 47.60131836 C21.66827559 61.22143417 16.27249446 73.64179198 6.96875 83.69140625 C-5.70112093 95.40920595 -20.11884915 100.39764653 -37.1015625 99.7578125 C-53.11740526 98.7783254 -65.6377032 91.3060214 -76.1875 79.4375 C-85.97906133 67.07315597 -89.98678035 52.10621816 -88.40625 36.44140625 C-87.44926724 31.93432616 -86.08161923 27.72968578 -84.40625 23.44140625 C-84.07882812 22.57902344 -83.75140625 21.71664062 -83.4140625 20.828125 C-77.93004164 8.27892398 -66.86342199 -1.5389874 -54.41015625 -6.83203125 C-51.75840733 -7.8251165 -49.11690883 -8.74144214 -46.40625 -9.55859375 C-45.80683594 -9.75195312 -45.20742188 -9.9453125 -44.58984375 -10.14453125 C-28.35612268 -13.22283972 -13.56811884 -8.78844061 0 0 Z " fill="#7B7B7C" transform="translate(622.40625,393.55859375)"/>
<path d="M0 0 C4.42548417 3.12154687 8.32816854 6.75620592 12.1875 10.54296875 C12.76628906 11.09726562 13.34507812 11.6515625 13.94140625 12.22265625 C24.17043167 22.95912679 26.7978859 37.52721094 26.5 51.73828125 C25.88842757 64.7087132 19.7819619 78.63087159 10.1875 87.54296875 C-3.93950631 99.29283458 -18.21094678 103.72446669 -36.34765625 102.78125 C-48.57513602 101.5991957 -60.88287387 94.45314353 -69.19140625 85.546875 C-80.24953063 71.8774345 -85.02174201 57.0097978 -83.8125 39.54296875 C-81.57210319 24.21790148 -73.19951335 12.4725299 -61.4375 2.73046875 C-43.48488086 -10.5538428 -19.1116786 -11.41782269 0 0 Z " fill="#7B7B7C" transform="translate(500.8125,390.45703125)"/>
<path d="M0 0 C8.23664186 2.79208199 14.4916215 10.90533612 20.52734375 16.95703125 C21.33490616 17.76363693 22.14246857 18.57024261 22.97450256 19.40129089 C24.66562645 21.09173886 26.35550656 22.78343195 28.04418945 24.47631836 C30.63834702 27.0758748 33.23785425 29.66999675 35.83789062 32.26367188 C37.48469611 33.91113742 39.13119176 35.55891274 40.77734375 37.20703125 C41.55641586 37.98407913 42.33548798 38.76112701 43.13816833 39.5617218 C44.21047447 40.63875618 44.21047447 40.63875618 45.30444336 41.73754883 C45.93539413 42.3692952 46.56634491 43.00104156 47.21641541 43.65193176 C49.1369284 45.73822294 49.65389551 47.07357645 50.1875 49.875 C48.97188383 58.08040914 38.91964233 65.16987741 33.25 70.8125 C32.44240234 71.62396484 31.63480469 72.43542969 30.80273438 73.27148438 C26.5031674 77.56412215 22.11690469 81.66123315 17.50756836 85.61743164 C15.75400809 87.19034345 14.15368075 88.82297124 12.5625 90.55859375 C12.08296875 91.07744141 11.6034375 91.59628906 11.109375 92.13085938 C10.14776189 93.18361439 9.20008012 94.24923802 8.265625 95.32617188 C6.2666323 97.45144503 4.5321525 99.0796323 1.62133789 99.66674805 C-2.09541306 99.77021401 -3.94434841 99.54631713 -6.875 97.1875 C-8.79678662 93.26037081 -8.41550819 91.46696348 -7.3125 87.25 C-5.52388384 84.67562858 -3.35831108 82.59419974 -1.08984375 80.44140625 C-0.46976944 79.82982162 0.15030487 79.218237 0.78916931 78.58811951 C2.76242033 76.64831053 4.75553555 74.73046708 6.75 72.8125 C8.09576976 71.49684129 9.44018712 70.17979772 10.78320312 68.86132812 C14.06918998 65.64130365 17.37314888 62.44081132 20.6875 59.25 C19.45610291 59.24191315 18.22470581 59.23382629 16.95599365 59.22549438 C5.36082428 59.14806668 -6.23422727 59.06033586 -17.82924271 58.96247292 C-23.79059769 58.91249092 -29.75193478 58.86616093 -35.71337891 58.828125 C-41.46466875 58.79129642 -47.21580964 58.74494287 -52.96697235 58.69193649 C-55.16301617 58.67337967 -57.35909193 58.6582765 -59.55518341 58.64665604 C-62.62711395 58.62981581 -65.69870237 58.60078576 -68.77050781 58.56884766 C-69.68184982 58.56668747 -70.59319183 58.56452728 -71.53215027 58.56230164 C-72.37065018 58.55113815 -73.20915009 58.53997467 -74.07305908 58.5284729 C-75.16261839 58.52017676 -75.16261839 58.52017676 -76.274189 58.51171303 C-78.65871443 58.2055471 -80.26138064 57.48969974 -82.3125 56.25 C-84.35496256 53.28842928 -84.91821329 50.79774927 -84.3125 47.25 C-82.30041404 44.50278327 -80.67616552 42.559693 -77.25540733 41.78282738 C-74.68061757 41.59354493 -72.14691822 41.56629402 -69.56518555 41.59057617 C-68.10105476 41.57485062 -68.10105476 41.57485062 -66.60734558 41.55880737 C-63.38764676 41.53005329 -60.16902299 41.53634957 -56.94921875 41.54296875 C-54.7143265 41.529854 -52.4794461 41.51455046 -50.24458313 41.49714661 C-44.36731731 41.45725815 -38.4903613 41.44710362 -32.61297607 41.44311523 C-26.61363301 41.43379114 -20.61447252 41.39638207 -14.61523438 41.36132812 C-2.84766481 41.29671292 8.91976856 41.26350501 20.6875 41.25 C19.84453369 40.41227051 19.00156738 39.57454102 18.13305664 38.71142578 C15.01269605 35.60913552 11.89562177 32.50356127 8.77954102 29.39697266 C7.42920225 28.05166944 6.07796825 26.70726419 4.72583008 25.36376953 C2.78492173 23.43496072 0.84723265 21.50296869 -1.08984375 19.5703125 C-1.69714828 18.96816925 -2.30445282 18.366026 -2.93016052 17.74563599 C-8.14111558 12.53538313 -8.14111558 12.53538313 -8.6875 8.4375 C-8.3125 5.25 -8.3125 5.25 -6.25 2.3125 C-3.3125 0.25 -3.3125 0.25 0 0 Z " fill="#2B2B2D" transform="translate(785.3125,451.75)"/>
<path d="M0 0 C8.46286082 6.10955193 15.41435638 13.64503526 19.921875 23.109375 C20.33308594 23.94082031 20.74429688 24.77226563 21.16796875 25.62890625 C23.97369269 32.415069 24.30246966 38.98681368 24.359375 46.234375 C24.36952637 47.15250977 24.37967773 48.07064453 24.39013672 49.01660156 C24.21353291 62.90114363 18.80559713 74.78645467 9.3046875 84.7890625 C-3.49809818 97.25603741 -17.24121385 101.54102554 -34.78271484 101.47290039 C-42.17169467 101.33428771 -48.39285322 100.42746878 -55.078125 97.109375 C-56.09003906 96.61179687 -57.10195312 96.11421875 -58.14453125 95.6015625 C-71.91311343 88.19168724 -80.64606479 77.2689257 -85.515625 62.421875 C-89.62043638 46.3224849 -87.18241802 31.11601486 -78.83203125 16.73828125 C-60.9587913 -10.0516753 -27.10681017 -16.7804063 0 0 Z M-65.25 19.62109375 C-67.74308939 23.01446542 -69.53391468 26.65659988 -71.4296875 30.40625 C-73.2597018 33.40712654 -75.3187234 35.47407824 -77.890625 37.859375 C-80.61427036 40.48094166 -82.06512218 42.08186902 -83.703125 45.546875 C-82.81366799 50.61677998 -79.95620241 53.10989019 -76.375 56.6796875 C-74.12950332 59.05502583 -72.65459246 61.26028436 -71.078125 64.109375 C-64.34792366 75.77389494 -56.7660602 83.85657736 -43.85546875 88.19140625 C-39.70851361 89.19919783 -36.01035995 89.45545297 -31.765625 89.421875 C-31.01724365 89.41623535 -30.2688623 89.4105957 -29.49780273 89.40478516 C-18.52005143 89.16476938 -9.07475352 85.5831658 -0.8828125 78.10546875 C2.73350817 74.26226865 5.37400412 70.44839206 7.734375 65.734375 C10.72758736 59.79797612 14.83027355 55.99120563 19.7265625 51.6171875 C22.05750398 49.32410156 22.05750398 49.32410156 22.59375 46.63671875 C21.60439702 42.91514097 19.08801702 41.00699651 16.296875 38.546875 C11.17483985 33.77598009 8.2783764 29.37104772 5.3984375 22.9375 C1.24539132 14.98298828 -6.0398802 9.71175184 -14.078125 6.109375 C-14.73941406 5.79097656 -15.40070313 5.47257813 -16.08203125 5.14453125 C-34.00718085 -2.2364127 -53.30303658 5.62809525 -65.25 19.62109375 Z " fill="#2E2E2F" transform="translate(275.078125,566.890625)"/>
<path d="M0 0 C6.39196507 4.93094448 11.12658015 12.70202044 12.65234375 20.6328125 C13.81951354 30.2072522 12.66191659 38.40515348 6.94921875 46.42578125 C0.49326102 54.0329762 -6.51093701 59.0976131 -16.56640625 59.9921875 C-27.86107116 60.48521416 -36.39883688 58.23593378 -45.03515625 50.43359375 C-51.94720426 42.84555082 -54.53950045 34.02676868 -54.44140625 23.984375 C-53.5661825 15.58023789 -49.58335601 7.19643854 -43.09765625 1.68359375 C-29.10877088 -8.29854134 -14.71135256 -9.23226408 0 0 Z " fill="#F8F8F8" transform="translate(259.09765625,411.31640625)"/>
<path d="M0 0 C7.27191864 5.16071645 13.60216085 11.88520592 15.80859375 20.7109375 C16.96505756 32.13396777 15.99495837 41.85135391 8.55859375 51.0234375 C2.64202136 57.29475085 -4.21807977 61.1595239 -12.85546875 62.1171875 C-24.11326861 62.3836443 -32.44756177 60.23604826 -41.12890625 52.5234375 C-46.70585819 46.40106238 -50.09456791 37.98862713 -50.24609375 29.73046875 C-49.66631786 19.38272955 -46.73288726 11.08483004 -39.19140625 3.7109375 C-27.09198172 -4.73429841 -13.41236381 -7.88962577 0 0 Z " fill="#F8F8F8" transform="translate(606.19140625,409.2890625)"/>
<path d="M0 0 C8.32958213 5.92255459 13.47454643 12.64837298 15.8046875 22.7109375 C17.17419731 33.1166522 14.87521561 42.60718028 8.5546875 51.0859375 C0.3376577 58.92946595 -7.5302994 62.19272389 -18.93725586 62.21508789 C-27.72260112 61.95713819 -34.7716235 58.24355846 -41.1953125 52.3359375 C-47.69331011 45.14229051 -50.77380649 35.77509461 -50.5078125 26.1328125 C-49.21494546 16.11309292 -44.16584842 7.74920092 -36.4453125 1.3984375 C-25.71566131 -6.08784004 -11.29818989 -6.63416844 0 0 Z " fill="#F8F8F8" transform="translate(489.1953125,409.2890625)"/>
<path d="M0 0 C6.09955084 4.9905416 11.16776174 11.4672353 12.75 19.3125 C13.72855114 29.89987972 12.54519329 39.81850838 5.75 48.3125 C0.02534967 54.95718342 -6.66608932 59.80134248 -15.62109375 60.62109375 C-26.31392974 61.08824364 -34.20060947 59.44652222 -42.625 52.296875 C-49.88083656 44.88098322 -52.42209058 36.93466933 -52.75 26.6875 C-52.55749538 20.35409793 -51.63311935 15.66647081 -48.25 10.3125 C-47.82589844 9.61640625 -47.40179688 8.9203125 -46.96484375 8.203125 C-42.68251363 1.85716504 -36.7856634 -2.87574687 -29.375 -5.0625 C-19.0981253 -7.04039057 -8.72036195 -6.07281373 0 0 Z " fill="#F8F8F8" transform="translate(375.25,410.6875)"/>
<path d="M0 0 C3.63 0 7.26 0 11 0 C13.31 13.2 15.62 26.4 18 40 C19.57632682 35.27101955 20.68126179 30.84850999 21.5078125 25.9765625 C21.63815887 25.23038666 21.76850525 24.48421082 21.90280151 23.71542358 C22.31452594 21.35267592 22.71985901 18.98888447 23.125 16.625 C23.40452498 15.01424946 23.68446866 13.40357153 23.96484375 11.79296875 C24.6480748 7.86280231 25.3255795 3.93168751 26 0 C29.3 0 32.6 0 36 0 C38.60155977 8.97655307 40.46100902 18.01452305 42.1875 27.1875 C42.46249408 28.63093498 42.73788216 30.07429495 43.01367188 31.51757812 C43.68031497 35.01086784 44.3416583 38.50513508 45 42 C45.17128418 40.97640381 45.34256836 39.95280762 45.51904297 38.89819336 C46.15987626 35.07508084 46.80597625 31.25287353 47.45361328 27.4309082 C47.73237924 25.78140834 48.0097454 24.13167125 48.28564453 22.48168945 C48.68408016 20.10042527 49.08766006 17.72007969 49.4921875 15.33984375 C49.6131076 14.61039047 49.73402771 13.88093719 49.85861206 13.12937927 C50.62742298 8.64239017 51.6753528 4.35633976 53 0 C55.97 0 58.94 0 62 0 C60.78607279 10.94136725 59.06209241 21.71434457 56.96826172 32.52075195 C56.49586401 34.9588463 56.03052783 37.39820852 55.56640625 39.83789062 C54.15020833 47.25062513 52.70406271 54.64696939 51 62 C46.71 62 42.42 62 38 62 C37.823479 61.07662842 37.64695801 60.15325684 37.46508789 59.2019043 C36.80883802 55.77434208 36.15076564 52.34714026 35.49145508 48.92016602 C35.20654392 47.43723345 34.92235871 45.95416121 34.63891602 44.47094727 C34.23124169 42.3383322 33.8209544 40.20623399 33.41015625 38.07421875 C33.04096069 36.14968872 33.04096069 36.14968872 32.66430664 34.1862793 C32.06397198 30.99867614 32.06397198 30.99867614 31 28 C30.18510814 32.35372252 29.37351289 36.70805337 28.5625 41.0625 C28.33240234 42.29162109 28.10230469 43.52074219 27.86523438 44.78710938 C27.53168945 46.58051758 27.53168945 46.58051758 27.19140625 48.41015625 C26.98717041 49.50465088 26.78293457 50.59914551 26.57250977 51.72680664 C25.97500446 55.14290626 25.47337709 58.56468919 25 62 C20.71 62 16.42 62 12 62 C10.6409521 55.95494294 9.34640506 49.90237863 8.125 43.828125 C7.95500488 42.98384949 7.78500977 42.13957397 7.60986328 41.26971436 C7.25304872 39.49502062 6.89677302 37.72021846 6.54101562 35.9453125 C6.00406826 33.27026787 5.46301183 30.59607482 4.921875 27.921875 C3.05363478 18.6363071 1.34375039 9.3782579 0 0 Z " fill="#2C2C2D" transform="translate(490,582)"/>
<path d="M0 0 C23 0 23 0 30 4 C34.57513815 8.69879053 36.08252205 13.35311918 36.3125 19.8125 C36.16758745 25.47261389 35.41441698 31.15542827 31.640625 35.6015625 C25.12366149 41.34589631 19.27496556 41.19939676 11 41 C11 47.93 11 54.86 11 62 C7.37 62 3.74 62 0 62 C0 41.54 0 21.08 0 0 Z " fill="#303031" transform="translate(688,582)"/>
<path d="M0 0 C4.62 0 9.24 0 14 0 C17.59006029 13.06952901 20.68619318 26.23595013 23.75 39.4375 C24.26150058 41.63351437 24.77321775 43.8294783 25.28515625 46.02539062 C26.52593241 51.3496829 27.76378576 56.67464675 29 62 C25.37 62 21.74 62 18 62 C16.67580106 57.58600353 15.76722276 53.60333655 15 49 C9.72 49 4.44 49 -1 49 C-1.66 53.29 -2.32 57.58 -3 62 C-6.63 62 -10.26 62 -14 62 C-12.5503449 52.45768266 -10.44724211 43.16841524 -8.125 33.8125 C-7.76446753 32.34590891 -7.40444423 30.87919256 -7.04492188 29.41235352 C-6.51451792 27.2483759 -5.98388722 25.08445922 -5.45159912 22.92094421 C-3.57569072 15.29392516 -1.78236713 7.6493256 0 0 Z " fill="#2B2B2D" transform="translate(651,582)"/>
<path d="M0 0 C4.62 0 9.24 0 14 0 C17.46978583 11.59073696 20.27128511 23.29696177 23.00146484 35.08178711 C23.75906049 38.35160551 24.52169689 41.62021807 25.28515625 44.88867188 C25.76851586 46.9634749 26.2515993 49.03834228 26.734375 51.11328125 C26.96243835 52.09226883 27.19050171 53.07125641 27.42547607 54.07991028 C27.63279358 54.97562241 27.84011108 55.87133453 28.05371094 56.79418945 C28.32873444 57.97994316 28.32873444 57.97994316 28.60931396 59.18965149 C29 61 29 61 29 62 C25.37 62 21.74 62 18 62 C17.01 58.04 16.02 54.08 15 50 C9.72 49.67 4.44 49.34 -1 49 C-1.144375 50.216875 -1.28875 51.43375 -1.4375 52.6875 C-1.81347252 55.85641121 -2.36975549 58.84877745 -3 62 C-6.63 62 -10.26 62 -14 62 C-11.27559872 47.82309434 -8.14027917 33.78144441 -4.75 19.75 C-4.28611391 17.81779099 -3.8225708 15.8854996 -3.359375 13.953125 C-2.24351139 9.30112984 -1.12309484 4.65025442 0 0 Z " fill="#2B2B2C" transform="translate(568,582)"/>
<path d="M0 0 C3.35286458 0.03255208 6.70572917 0.06510417 10.05859375 0.09765625 C13.32313552 11.94524217 16.21556238 23.87324242 19.06005859 35.82763672 C19.81888107 39.01587908 20.58110733 42.20329451 21.34375 45.390625 C21.82701952 47.41531767 22.31009973 49.44005553 22.79296875 51.46484375 C23.0210321 52.4188205 23.24909546 53.37279724 23.48406982 54.35568237 C23.69138733 55.22814606 23.89870483 56.10060974 24.11230469 56.99951172 C24.38732819 58.15409378 24.38732819 58.15409378 24.66790771 59.33200073 C25.05859375 61.09765625 25.05859375 61.09765625 25.05859375 62.09765625 C21.42859375 62.09765625 17.79859375 62.09765625 14.05859375 62.09765625 C13.06859375 58.13765625 12.07859375 54.17765625 11.05859375 50.09765625 C5.77859375 49.76765625 0.49859375 49.43765625 -4.94140625 49.09765625 C-5.08578125 50.68578125 -5.23015625 52.27390625 -5.37890625 53.91015625 C-5.64949409 56.88662251 -5.99113026 59.24682829 -6.94140625 62.09765625 C-10.57140625 62.09765625 -14.20140625 62.09765625 -17.94140625 62.09765625 C-15.31182946 49.2714019 -12.4628583 36.50989033 -9.42211914 23.77490234 C-8.73979663 20.91348555 -8.06411109 18.05054853 -7.38867188 15.1875 C-6.95481998 13.36318777 -6.52059041 11.5389653 -6.0859375 9.71484375 C-5.88490921 8.86091034 -5.68388092 8.00697693 -5.47676086 7.12716675 C-3.79514775 0.12600092 -3.79514775 0.12600092 0 0 Z " fill="#2B2B2C" transform="translate(382.94140625,581.90234375)"/>
<path d="M0 0 C4.34957127 2.59301364 8.24721426 5.96474463 9.91015625 10.89453125 C10.46999679 14.26000944 10.30679162 17.53000278 10.25 20.9375 C6.62 20.9375 2.99 20.9375 -0.75 20.9375 C-0.9453125 18.91927083 -1.140625 16.90104167 -1.3359375 14.8828125 C-1.61374749 12.71081755 -1.61374749 12.71081755 -3.75 10.9375 C-8.79990952 10.30956403 -8.79990952 10.30956403 -13.35058594 11.98364258 C-15.48504297 14.96376463 -15.15850188 18.03306588 -15.11328125 21.5625 C-15.11377975 22.30580566 -15.11427826 23.04911133 -15.11479187 23.81494141 C-15.11245333 25.38511837 -15.10273768 26.95529921 -15.08618164 28.52539062 C-15.06258614 30.92872642 -15.06562226 33.33095279 -15.07226562 35.734375 C-15.06668872 37.26042328 -15.05957877 38.78646689 -15.05078125 40.3125 C-15.05169266 41.03131348 -15.05260406 41.75012695 -15.05354309 42.49072266 C-15.0010669 46.1836273 -14.85334783 47.78247826 -12.75 50.9375 C-10.61511724 51.37682865 -10.61511724 51.37682865 -8.25 51.25 C-7.4559375 51.24613281 -6.661875 51.24226562 -5.84375 51.23828125 C-3.53266964 51.11975165 -3.53266964 51.11975165 -1.75 48.9375 C-1.28709779 46.27507179 -1.28709779 46.27507179 -1.125 43.3125 C-1.05023438 42.30960938 -0.97546875 41.30671875 -0.8984375 40.2734375 C-0.84945313 39.50257813 -0.80046875 38.73171875 -0.75 37.9375 C-3.39 37.9375 -6.03 37.9375 -8.75 37.9375 C-8.75 34.6375 -8.75 31.3375 -8.75 27.9375 C-2.48 27.9375 3.79 27.9375 10.25 27.9375 C10.33137993 31.29216148 10.39068359 34.64482391 10.4375 38 C10.46263672 38.94294922 10.48777344 39.88589844 10.51367188 40.85742188 C10.59022633 48.18113117 9.72495843 53.00662817 4.875 58.75 C-0.16599107 62.95082589 -4.72513355 63.32900702 -11.09765625 63.18359375 C-16.25050486 62.70549439 -19.27156596 60.68800856 -22.5625 56.875 C-26.09886043 52.12617314 -25.94039787 48.53186779 -25.98828125 42.765625 C-25.996353 41.85045105 -26.00442474 40.9352771 -26.01274109 39.99237061 C-26.02658629 38.0522247 -26.03730649 36.11205439 -26.04516602 34.171875 C-26.0623515 31.21306752 -26.10623007 28.25538533 -26.15039062 25.296875 C-26.16052001 23.41146655 -26.16903535 21.52604859 -26.17578125 19.640625 C-26.19328934 18.75916809 -26.21079742 17.87771118 -26.22883606 16.96954346 C-26.20946677 11.44813035 -25.43115328 8.316636 -21.75 3.9375 C-15.22125792 -1.95429163 -8.29290856 -2.34965742 0 0 Z " fill="#2B2C2D" transform="translate(348.75,582.0625)"/>
<path d="M0 0 C3.96 0 7.92 0 12 0 C15.20840598 7.54919054 18.22061685 15.12539302 21.03173828 22.83007812 C22.07578797 26.17084864 22.07578797 26.17084864 24 29 C27.63 19.43 31.26 9.86 35 0 C38.96 0 42.92 0 47 0 C47 13.86 47 27.72 47 42 C44.36 42 41.72 42 39 42 C38.67 32.76 38.34 23.52 38 14 C34.7 23.24 31.4 32.48 28 42 C25.36 42 22.72 42 20 42 C15.85356334 32.47787333 12.40205168 22.81056764 9 13 C8.67 22.57 8.34 32.14 8 42 C5.36 42 2.72 42 0 42 C0 28.14 0 14.28 0 0 Z " fill="#282829" transform="translate(1213,339)"/>
<path d="M0 0 C10.23 0 20.46 0 31 0 C31 3.3 31 6.6 31 10 C24.07 10 17.14 10 10 10 C10 15.28 10 20.56 10 26 C15.28 26 20.56 26 26 26 C26 29.3 26 32.6 26 36 C20.72 36 15.44 36 10 36 C10 41.28 10 46.56 10 52 C16.93 52 23.86 52 31 52 C31 55.3 31 58.6 31 62 C20.77 62 10.54 62 0 62 C0 41.54 0 21.08 0 0 Z " fill="#272728" transform="translate(452,582)"/>
<path d="M0 0 C3.3 0 6.6 0 10 0 C12.86321638 5.57440358 15.40417379 11.19080805 17.75 17 C18.06582031 17.77472656 18.38164063 18.54945313 18.70703125 19.34765625 C19.47416752 21.2306271 20.23749249 23.11514998 21 25 C22.75518231 22.36722654 23.91213214 20.04572607 25.12890625 17.1484375 C25.52400391 16.21515625 25.91910156 15.281875 26.32617188 14.3203125 C26.73416016 13.34835937 27.14214844 12.37640625 27.5625 11.375 C28.37411722 9.44439254 29.18780768 7.5146549 30.00390625 5.5859375 C30.54253296 4.30275635 30.54253296 4.30275635 31.09204102 2.99365234 C32 1 32 1 33 0 C34.68608966 -0.07205511 36.37500659 -0.08386068 38.0625 -0.0625 C38.98160156 -0.05347656 39.90070312 -0.04445313 40.84765625 -0.03515625 C41.55792969 -0.02355469 42.26820313 -0.01195312 43 0 C41.3619592 5.45620783 39.36032639 10.49210898 36.8984375 15.6328125 C29.43312402 31.33127451 24.93572902 44.23888765 26 62 C22.7 62 19.4 62 16 62 C16.10183594 60.68515625 16.20367188 59.3703125 16.30859375 58.015625 C16.98656041 39.05634681 10.08813947 23.9853419 2.26123047 7.10214233 C0 2.20043312 0 2.20043312 0 0 Z " fill="#28282A" transform="translate(596,582)"/>
<path d="M0 0 C11.88 0 23.76 0 36 0 C36 3.3 36 6.6 36 10 C31.71 10 27.42 10 23 10 C23 27.16 23 44.32 23 62 C19.7 62 16.4 62 13 62 C13 44.84 13 27.68 13 10 C8.71 10 4.42 10 0 10 C0 6.7 0 3.4 0 0 Z " fill="#272728" transform="translate(407,582)"/>
<path d="M0 0 C4.23020015 2.50358785 6.53398061 4.83055227 7.8125 9.625 C7.895 10.346875 7.9775 11.06875 8.0625 11.8125 C5.00827585 12.11193374 2.10719471 12.25040025 -0.9375 11.8125 C-2.64430947 10.18696717 -4.31410195 8.52134005 -5.9375 6.8125 C-9.56443382 6.22835298 -9.56443382 6.22835298 -12.9375 6.8125 C-13.5975 7.4725 -14.2575 8.1325 -14.9375 8.8125 C-14.61708603 11.41530568 -14.61708603 11.41530568 -13.9375 13.8125 C-12.41769531 14.28429687 -12.41769531 14.28429687 -10.8671875 14.765625 C-9.51546765 15.1974244 -8.16391386 15.62974388 -6.8125 16.0625 C-6.14734375 16.26746094 -5.4821875 16.47242188 -4.796875 16.68359375 C-0.33021456 18.12868977 3.28205178 19.93981898 7.0625 22.8125 C8.92580667 26.53911334 8.61940611 30.75412673 8.0625 34.8125 C4.93420539 39.2679499 1.20954319 41.20932261 -3.9375 42.8125 C-10.7958492 43.73142914 -16.22546785 42.79444549 -21.9375 38.8125 C-25.0269197 35.822739 -25.45909151 33.02249469 -25.9375 28.8125 C-22.9675 28.8125 -19.9975 28.8125 -16.9375 28.8125 C-16.2775 30.1325 -15.6175 31.4525 -14.9375 32.8125 C-12.43610398 34.06319801 -10.66357309 33.94552467 -7.875 33.9375 C-6.97652344 33.94007813 -6.07804687 33.94265625 -5.15234375 33.9453125 C-2.96371107 34.05988223 -2.96371107 34.05988223 -1.9375 32.8125 C-1.89686168 31.14632885 -1.894779 29.47861905 -1.9375 27.8125 C-3.030625 27.4 -4.12375 26.9875 -5.25 26.5625 C-5.97316406 26.28664063 -6.69632813 26.01078125 -7.44140625 25.7265625 C-9.20689104 25.08004694 -10.98762935 24.47449413 -12.77734375 23.8984375 C-16.89620693 22.53838335 -20.24011877 21.38013588 -23.625 18.625 C-25.50404661 14.59847155 -25.82766937 11.17126035 -24.9375 6.8125 C-20.24621288 -2.26244885 -8.83462663 -3.358303 0 0 Z " fill="#29292A" transform="translate(1292.9375,339.1875)"/>
<path d="M0 0 C3.64552832 2.17393891 5.89789906 3.97447794 7.44140625 8.01953125 C7.44140625 9.33953125 7.44140625 10.65953125 7.44140625 12.01953125 C4.47140625 12.01953125 1.50140625 12.01953125 -1.55859375 12.01953125 C-2.21859375 10.69953125 -2.87859375 9.37953125 -3.55859375 8.01953125 C-6.54453799 6.52655913 -9.26712999 6.90197897 -12.55859375 7.01953125 C-13.54859375 7.51453125 -13.54859375 7.51453125 -14.55859375 8.01953125 C-14.55859375 9.66953125 -14.55859375 11.31953125 -14.55859375 13.01953125 C-9.48974106 15.27235467 -4.38337371 17.1361873 0.890625 18.859375 C4.40928588 20.45974603 6.70877169 22.55426212 8.44140625 26.01953125 C8.93799701 30.98543887 9.05095249 33.04056304 6.37890625 37.33203125 C1.06235949 42.19610594 -3.99870685 43.61447402 -11.0625 43.3671875 C-16.74329403 42.5759658 -20.41170097 40.39580258 -24.05859375 36.01953125 C-25.55859375 33.01953125 -25.55859375 33.01953125 -25.55859375 29.01953125 C-20.23916741 28.57624572 -20.23916741 28.57624572 -17.55859375 29.01953125 C-16.93984375 29.84453125 -16.32109375 30.66953125 -15.68359375 31.51953125 C-13.83803189 34.2436568 -13.83803189 34.2436568 -11.16796875 34.38671875 C-6.20056481 34.48746282 -6.20056481 34.48746282 -1.55859375 33.01953125 C-1.55859375 31.03953125 -1.55859375 29.05953125 -1.55859375 27.01953125 C-2.33203125 26.849375 -3.10546875 26.67921875 -3.90234375 26.50390625 C-11.10068009 24.82904581 -17.81906772 23.17475634 -23.55859375 18.33203125 C-25.18609932 14.56842461 -25.31053501 11.03684704 -24.55859375 7.01953125 C-19.75385355 -1.99888983 -9.01436729 -3.45436059 0 0 Z " fill="#2A2A2B" transform="translate(1197.55859375,338.98046875)"/>
<path d="M0 0 C6.37582522 2.12809561 10.22248065 6.70867495 14.875 11.375 C15.76703125 12.23867188 16.6590625 13.10234375 17.578125 13.9921875 C18.41601562 14.8275 19.25390625 15.6628125 20.1171875 16.5234375 C20.88659668 17.28575684 21.65600586 18.04807617 22.44873047 18.83349609 C24 21 24 21 24.01342773 22.98193359 C21.57500374 27.83763409 17.00090272 31.46574768 13.1875 35.25 C12.27162109 36.18585937 11.35574219 37.12171875 10.41210938 38.0859375 C9.52716797 38.97023438 8.64222656 39.85453125 7.73046875 40.765625 C6.51460083 41.98427246 6.51460083 41.98427246 5.27416992 43.22753906 C3 45 3 45 -1 45 C-1.02527124 38.75204325 -1.04283344 32.50409959 -1.05493164 26.25610352 C-1.05997298 24.12881986 -1.06680591 22.00153969 -1.07543945 19.87426758 C-1.08751379 16.82372174 -1.09323014 13.77322155 -1.09765625 10.72265625 C-1.10281754 9.76537125 -1.10797882 8.80808624 -1.11329651 7.8217926 C-1.11337204 6.94095505 -1.11344757 6.06011749 -1.11352539 5.15258789 C-1.115746 4.37315323 -1.11796661 3.59371857 -1.12025452 2.79066467 C-1 1 -1 1 0 0 Z " fill="#2E2E2F" transform="translate(264,591)"/>
<path d="M0 0 C1.32 0.33 2.64 0.66 4 1 C4 15.19 4 29.38 4 44 C2.02 44.495 2.02 44.495 0 45 C-2.39770508 43.24926758 -2.39770508 43.24926758 -5.01953125 40.64453125 C-5.48236008 40.18648605 -5.9451889 39.72844086 -6.42204285 39.2565155 C-7.3971413 38.28481924 -8.36595471 37.30678105 -9.32885742 36.32299805 C-10.80733391 34.8177596 -12.31055943 33.34103204 -13.81835938 31.86523438 C-14.76202401 30.91826569 -15.70413644 29.96974714 -16.64453125 29.01953125 C-17.50409424 28.15432861 -18.36365723 27.28912598 -19.24926758 26.39770508 C-21 24 -21 24 -21.04296875 21.98632812 C-18.50503622 17.15284988 -14.01430963 13.50367222 -10.1875 9.6875 C-9.27162109 8.74326172 -8.35574219 7.79902344 -7.41210938 6.82617188 C-6.52716797 5.93865234 -5.64222656 5.05113281 -4.73046875 4.13671875 C-3.91989014 3.31905029 -3.10931152 2.50138184 -2.27416992 1.65893555 C-1.52369385 1.11148682 -0.77321777 0.56403809 0 0 Z " fill="#2D2D2E" transform="translate(222,591)"/>
<path d="M0 0 C3.3 0 6.6 0 10 0 C10 20.46 10 40.92 10 62 C6.7 62 3.4 62 0 62 C0 41.54 0 21.08 0 0 Z " fill="#262628" transform="translate(734,582)"/>
<path d="M0 0 C4.35944153 2.22084757 7.16830464 4.42076159 9 9 C9.70599788 13.70665253 9.45316426 17.0588127 7.375 21.375 C4.09775665 24.99721634 1.55981295 26.86440798 -3.43359375 27.12890625 C-7.97521195 26.90621175 -10.36990756 26.49882318 -14 23.625 C-17.56674279 18.94365009 -18.73660473 15.86981894 -18 10 C-14.64832478 2.23822582 -8.19256744 -1.0984448 0 0 Z " fill="#878788" transform="translate(1066,407)"/>
<path d="M0 0 C3.62011046 2.33296007 5.89022378 4.96794755 7.8125 8.8125 C8.0534759 13.95681152 7.2694989 17.81906212 3.9375 21.8125 C0.86242618 25.15026857 -1.4103671 25.74880058 -6 26.125 C-10.3733685 26.06872504 -12.81147294 24.63894126 -16.1875 21.8125 C-19.76502094 17.86783491 -19.74714198 14.67109201 -19.609375 9.51171875 C-18.84015043 4.59010599 -16.27670062 2.34458045 -12.3125 -0.5625 C-7.90416955 -1.85906778 -4.27897212 -1.59412687 0 0 Z " fill="#868788" transform="translate(974.1875,408.1875)"/>
<path d="M0 0 C3.65443479 2.08714004 6.79055905 4.88790076 8 9 C8.56454303 13.98679676 7.92748492 17.33442032 5.2578125 21.48828125 C2.15254601 25.22038725 -1.28665184 25.90941611 -5.9375 26.5 C-10.5405018 26.32330127 -13.82712521 24.25862816 -17 21 C-19.58805839 16.80734541 -19.66635961 12.79778918 -19 8 C-17.21413657 4.29089903 -15.63776905 2.45978699 -12.3125 0.0625 C-7.9067976 -1.35064983 -4.43662652 -1.30955881 0 0 Z " fill="#868788" transform="translate(1021,408)"/>
<path d="M0 0 C1.07128647 -0.00953201 2.14257294 -0.01906403 3.24632263 -0.02888489 C4.40777298 -0.02797348 5.56922333 -0.02706207 6.76586914 -0.02612305 C7.95451065 -0.03040817 9.14315216 -0.0346933 10.36781311 -0.03910828 C12.88550173 -0.04485998 15.40320697 -0.04534569 17.92089844 -0.04101562 C21.78161879 -0.03785767 25.64157187 -0.06129862 29.50219727 -0.08666992 C31.94425359 -0.08894294 34.38631198 -0.0896464 36.82836914 -0.08862305 C37.98779526 -0.09783279 39.14722137 -0.10704254 40.34178162 -0.11653137 C41.95343956 -0.10718819 41.95343956 -0.10718819 43.59765625 -0.09765625 C44.5442662 -0.09828568 45.49087616 -0.0989151 46.46617126 -0.0995636 C48.86352539 0.2746582 48.86352539 0.2746582 50.70436096 1.63777161 C51.86352539 3.2746582 51.86352539 3.2746582 51.67602539 5.8371582 C50.86352539 8.2746582 50.86352539 8.2746582 48.86352539 10.2746582 C46.58642578 10.52862549 46.58642578 10.52862549 43.71118164 10.53344727 C42.63666748 10.53975159 41.56215332 10.54605591 40.45507812 10.55255127 C39.29049072 10.54850281 38.12590332 10.54445435 36.92602539 10.5402832 C35.73501221 10.54219666 34.54399902 10.54411011 33.31689453 10.54608154 C30.79500111 10.54744451 28.2731007 10.54374037 25.7512207 10.53540039 C21.8796419 10.52470274 18.00852717 10.53529226 14.13696289 10.5480957 C11.69164936 10.54677413 9.24633612 10.54421178 6.80102539 10.5402832 C5.05414429 10.5463559 5.05414429 10.5463559 3.27197266 10.55255127 C1.66020142 10.54309479 1.66020142 10.54309479 0.01586914 10.53344727 C-1.40737671 10.53106049 -1.40737671 10.53106049 -2.859375 10.52862549 C-5.13647461 10.2746582 -5.13647461 10.2746582 -7.13647461 8.2746582 C-7.38647461 5.2746582 -7.38647461 5.2746582 -7.13647461 2.2746582 C-4.56587835 -0.29593806 -3.57205054 0.0174007 0 0 Z " fill="#7F7F81" transform="translate(1104.136474609375,244.725341796875)"/>
<path d="M0 0 C9 0 9 0 12.0625 1.875 C14.78877145 6.27221202 14.77908827 9.95250259 14 15 C11.97368421 19.51315789 11.97368421 19.51315789 9 21 C6.03 21 3.06 21 0 21 C0 14.07 0 7.14 0 0 Z " fill="#F9F9F9" transform="translate(699,592)"/>
<path d="M0 0 C0.495 1.485 0.495 1.485 1 3 C-0.6875 5.875 -0.6875 5.875 -3 9 C-3.598125 9.928125 -4.19625 10.85625 -4.8125 11.8125 C-8.9790909 15.9790909 -15.47926667 15.11517419 -21.09014893 15.12442017 C-22.42695709 15.11902725 -22.42695709 15.11902725 -23.79077148 15.11352539 C-24.74764359 15.11367142 -25.70451569 15.11381744 -26.69038391 15.1139679 C-29.83397741 15.11327462 -32.97751068 15.10550971 -36.12109375 15.09765625 C-38.30827299 15.09578999 -40.49545264 15.09436707 -42.68263245 15.09336853 C-48.42500981 15.08955973 -54.16736168 15.07974346 -59.909729 15.06866455 C-65.77510229 15.05841519 -71.64047971 15.05386337 -77.50585938 15.04882812 C-89.00391742 15.03811968 -100.50195659 15.02106297 -112 15 C-109.31475979 12.31475979 -107.25933929 12.75617123 -103.60971069 12.73213196 C-102.26243393 12.73831795 -102.26243393 12.73831795 -100.88793945 12.74462891 C-99.47059258 12.73919823 -99.47059258 12.73919823 -98.02461243 12.73365784 C-95.96751689 12.72675155 -93.91040297 12.7242607 -91.85329628 12.72560501 C-88.59560834 12.72656772 -85.33825268 12.71365695 -82.08061218 12.69662476 C-72.81654472 12.65028316 -63.55250937 12.62575525 -54.28833008 12.61914062 C-48.62543327 12.61412167 -42.96288056 12.58984699 -37.30010033 12.55381393 C-35.14281469 12.54402017 -32.98548166 12.54168166 -30.82818031 12.54698563 C-27.80475863 12.5540676 -24.78235844 12.53674837 -21.7590332 12.51416016 C-20.87096985 12.52233261 -19.98290649 12.53050507 -19.06793213 12.53892517 C-13.22293827 12.46142621 -9.80934402 11.36790769 -5 8 C-3.18982496 5.95699854 -3.18982496 5.95699854 -2.0625 3.75 C-1.66160156 3.04359375 -1.26070312 2.3371875 -0.84765625 1.609375 C-0.42806641 0.81273437 -0.42806641 0.81273437 0 0 Z " fill="#282829" transform="translate(1324,395)"/>
<path d="M0 0 C6.27 0 12.54 0 19 0 C19 0.66 19 1.32 19 2 C13.39 2 7.78 2 2 2 C2 21.47 2 40.94 2 61 C4.31 61 6.62 61 9 61 C9 54.4 9 47.8 9 41 C9.33 41 9.66 41 10 41 C10 47.93 10 54.86 10 62 C6.7 62 3.4 62 0 62 C0 41.54 0 21.08 0 0 Z " fill="#19191A" transform="translate(688,582)"/>
<path d="M0 0 C1.90751172 2.86126758 2.43105737 4.29475892 3.0703125 7.5625 C3.24433594 8.44164062 3.41835938 9.32078125 3.59765625 10.2265625 C3.77167969 11.14179687 3.94570313 12.05703125 4.125 13 C4.30675781 13.91523437 4.48851562 14.83046875 4.67578125 15.7734375 C6 22.56379229 6 22.56379229 6 26 C2.04 26 -1.92 26 -6 26 C-5.19210806 21.85321886 -4.3789253 17.70760147 -3.5625 13.5625 C-3.33240234 12.37849609 -3.10230469 11.19449219 -2.86523438 9.97460938 C-2.64287109 8.84990234 -2.42050781 7.72519531 -2.19140625 6.56640625 C-1.98717041 5.52427979 -1.78293457 4.48215332 -1.57250977 3.40844727 C-1 1 -1 1 0 0 Z " fill="#F4F5F5" transform="translate(575,595)"/>
<path d="M0 0 C1.45330393 2.70735844 2.40501429 5.19058744 3.0703125 8.1875 C3.24433594 8.96867188 3.41835938 9.74984375 3.59765625 10.5546875 C3.77167969 11.36164062 3.94570313 12.16859375 4.125 13 C4.30675781 13.80695312 4.48851562 14.61390625 4.67578125 15.4453125 C5.4830791 19.12367715 6 22.19554474 6 26 C2.04 26 -1.92 26 -6 26 C-5.19210806 21.85321886 -4.3789253 17.70760147 -3.5625 13.5625 C-3.33240234 12.37849609 -3.10230469 11.19449219 -2.86523438 9.97460938 C-2.64287109 8.84990234 -2.42050781 7.72519531 -2.19140625 6.56640625 C-1.98717041 5.52427979 -1.78293457 4.48215332 -1.57250977 3.40844727 C-1 1 -1 1 0 0 Z " fill="#F5F5F5" transform="translate(658,595)"/>
<path d="M0 0 C2.2987284 2.2987284 2.45832914 3.30574785 3.0703125 6.4296875 C3.24433594 7.30753906 3.41835938 8.18539062 3.59765625 9.08984375 C3.77167969 10.00894531 3.94570313 10.92804687 4.125 11.875 C4.30675781 12.78636719 4.48851562 13.69773437 4.67578125 14.63671875 C5.43666784 18.54412882 6 21.99700346 6 26 C2.37 26 -1.26 26 -5 26 C-4.43819394 17.01110303 -2.31161634 8.66587335 0 0 Z " fill="#F3F3F3" transform="translate(386,595)"/>
<path d="M0 0 C0.33 0 0.66 0 1 0 C1 3.3 1 6.6 1 10 C0.67 10 0.34 10 0 10 C0 6.7 0 3.4 0 0 Z M-17 10 C-11.39 10 -5.78 10 0 10 C-0.33 10.66 -0.66 11.32 -1 12 C-5.62 12 -10.24 12 -15 12 C-15 15.96 -15 19.92 -15 24 C-8.73 24.33 -2.46 24.66 4 25 C4 25.33 4 25.66 4 26 C-2.93 26 -9.86 26 -17 26 C-17 20.72 -17 15.44 -17 10 Z " fill="#E8E8E9" transform="translate(479,608)"/>
<path d="M0 0 C3.84108078 0.26798238 5.736021 0.794683 8.8125 3.1875 C11.205317 6.263979 11.73201762 8.15891922 12 12 C9.03 12 6.06 12 3 12 C2.34 10.68 1.68 9.36 1 8 C-1.40404738 7.08400573 -1.40404738 7.08400573 -4.125 6.75 C-5.03507812 6.60046875 -5.94515625 6.4509375 -6.8828125 6.296875 C-7.58148437 6.19890625 -8.28015625 6.1009375 -9 6 C-9 5.67 -9 5.34 -9 5 C-0.87371744 4.53117601 -0.87371744 4.53117601 2.5625 6.375 C4 8 4 8 4 10 C5.98 10 7.96 10 10 10 C8.45705773 5.8309343 8.45705773 5.8309343 5.2421875 2.93359375 C3.52442366 2.21380202 1.76354319 1.5989392 0 1 C0 0.67 0 0.34 0 0 Z " fill="#181819" transform="translate(1193,339)"/>
<path d="M0 0 C0.93423645 3.01031744 1.04449911 3.86650268 0 7 C-0.3053818 11.654797 -0.3053818 11.654797 1 16 C0.39421747 18.01927511 -0.26919734 20.02253397 -1 22 C-1.66 22 -2.32 22 -3 22 C-3.33608711 13.94635715 -3.0517291 7.50216736 0 0 Z " fill="#202021" transform="translate(191,596)"/>
<path d="M0 0 C0.33 0 0.66 0 1 0 C1 9.9 1 19.8 1 30 C0.67 30 0.34 30 0 30 C-0.02505615 29.34926514 -0.0501123 28.69853027 -0.07592773 28.02807617 C-0.19193702 25.08101954 -0.31464115 22.1342787 -0.4375 19.1875 C-0.47681641 18.16333984 -0.51613281 17.13917969 -0.55664062 16.08398438 C-0.59853516 15.10107422 -0.64042969 14.11816406 -0.68359375 13.10546875 C-0.73858032 11.74651489 -0.73858032 11.74651489 -0.79467773 10.36010742 C-0.9208205 7.84951218 -0.9208205 7.84951218 -2 5 C-1.0625 2.3125 -1.0625 2.3125 0 0 Z " fill="#E4E4E4" transform="translate(1251,351)"/>
<path d="M0 0 C0.33 0.99 0.66 1.98 1 3 C-0.6875 5.875 -0.6875 5.875 -3 9 C-3.928125 10.3921875 -3.928125 10.3921875 -4.875 11.8125 C-7.51100885 14.52603852 -9.29259773 14.74722257 -13 15 C-12 12 -12 12 -8.75 10.3125 C-4.26247503 7.95307965 -2.3087159 4.38336843 0 0 Z " fill="#1E1D1E" transform="translate(1324,395)"/>
<path d="M0 0 C-0.845625 0.515625 -1.69125 1.03125 -2.5625 1.5625 C-6.54506939 4.2049631 -9.70778155 7.56429504 -13 11 C-13.99771429 12.00228049 -14.9969743 13.00303488 -16 14 C-14.19213733 8.0340532 -10.23753497 3.6651423 -5.3125 0 C-3 -1 -3 -1 0 0 Z " fill="#D2D2D2" transform="translate(934,364)"/>
<path d="M0 0 C0.66 0 1.32 0 2 0 C1.01 4.95 0.02 9.9 -1 15 C-3 12 -3 12 -2.75 8.625 C-2.10626078 5.51359378 -1.30944157 2.88077146 0 0 Z " fill="#EAEAEA" transform="translate(510,610)"/>
<path d="M0 0 C0.66 0.33 1.32 0.66 2 1 C0.75796305 2.46512126 -0.49397056 3.92185645 -1.75 5.375 C-2.44609375 6.18710937 -3.1421875 6.99921875 -3.859375 7.8359375 C-5.85949643 9.85795807 -7.39531129 10.93231229 -10 12 C-8.52278578 8.54798361 -6.56205999 6.35038064 -3.875 3.75 C-3.15054687 3.04359375 -2.42609375 2.3371875 -1.6796875 1.609375 C-1.12539063 1.07828125 -0.57109375 0.5471875 0 0 Z " fill="#6B6B6C" transform="translate(438,394)"/>
<path d="M0 0 C1.88391785 3.26545761 2.49287967 6.28111761 3 10 C2.34 10 1.68 10 1 10 C1 9.34 1 8.68 1 8 C0.01 8.33 -0.98 8.66 -2 9 C-1.125 1.125 -1.125 1.125 0 0 Z " fill="#E8E8E8" transform="translate(658,595)"/>
<path d="M0 0 C2.97 0 5.94 0 9 0 C8.67 2.31 8.34 4.62 8 7 C7.67 7 7.34 7 7 7 C7 5.35 7 3.7 7 2 C5.02 2 3.04 2 1 2 C0.67 2.66 0.34 3.32 0 4 C0 2.68 0 1.36 0 0 Z " fill="#101011" transform="translate(543,582)"/>
<path d="M0 0 C1.32 0.33 2.64 0.66 4 1 C4.33 1.66 4.66 2.32 5 3 C3.68 3 2.36 3 1 3 C0.87625 4.134375 0.7525 5.26875 0.625 6.4375 C0.41875 7.613125 0.2125 8.78875 0 10 C-0.99 10.495 -0.99 10.495 -2 11 C-1.34 7.37 -0.68 3.74 0 0 Z " fill="#EBEBEB" transform="translate(650,631)"/>
<path d="M0 0 C0.33 0 0.66 0 1 0 C1.22162329 1.62324086 1.42689803 3.248721 1.625 4.875 C1.74101563 5.77992188 1.85703125 6.68484375 1.9765625 7.6171875 C1.98429688 8.40351562 1.99203125 9.18984375 2 10 C1.34 10.66 0.68 11.32 0 12 C0 11.01 0 10.02 0 9 C-0.66 9 -1.32 9 -2 9 C-1.34 6.03 -0.68 3.06 0 0 Z " fill="#F1F2F2" transform="translate(521,607)"/>
<path d="M0 0 C0.66 0.33 1.32 0.66 2 1 C1.4140625 7.15234375 1.4140625 7.15234375 1 9 C0.01 9.495 0.01 9.495 -1 10 C-1.33 7.03 -1.66 4.06 -2 1 C-1.34 0.67 -0.68 0.34 0 0 Z " fill="#E9E9E9" transform="translate(535,615)"/>
<path d="M0 0 C2.34914492 2.34914492 2.73140357 3.95679446 3.625 7.125 C3.88539062 8.03507812 4.14578125 8.94515625 4.4140625 9.8828125 C4.70410156 10.93082031 4.70410156 10.93082031 5 12 C3.046875 11.3203125 3.046875 11.3203125 1 10 C0.390625 7.6171875 0.390625 7.6171875 0.25 4.875 C0.19328125 3.96492188 0.1365625 3.05484375 0.078125 2.1171875 C0.05234375 1.41851562 0.0265625 0.71984375 0 0 Z " fill="#E1E1E1" transform="translate(1221,350)"/>
<path d="M0 0 C3.3 0 6.6 0 10 0 C9.67 0.66 9.34 1.32 9 2 C6.69 2 4.38 2 2 2 C1.67 2.66 1.34 3.32 1 4 C0.67 2.68 0.34 1.36 0 0 Z " fill="#131314" transform="translate(490,582)"/>
<path d="M0 0 C2.64 0.66 5.28 1.32 8 2 C8 2.66 8 3.32 8 4 C9.32 4.33 10.64 4.66 12 5 C6.72209903 5.50265724 4.13774748 4.25108731 0 1 C0 0.67 0 0.34 0 0 Z " fill="#151516" transform="translate(1066,264)"/>
<path d="M0 0 C2 2 2 2 2.125 5.625 C2.08375 6.73875 2.0425 7.8525 2 9 C1.67 8.34 1.34 7.68 1 7 C0.34 7 -0.32 7 -1 7 C-0.67 4.69 -0.34 2.38 0 0 Z " fill="#E9E9E9" transform="translate(386,595)"/>
<path d="M0 0 C2 3 2 3 1.8125 5.125 C1.544375 5.74375 1.27625 6.3625 1 7 C0.01 7.33 -0.98 7.66 -2 8 C-1.125 1.125 -1.125 1.125 0 0 Z " fill="#E6E6E5" transform="translate(575,595)"/>
<path d="M0 0 C0.99 0 1.98 0 3 0 C2.67 2.64 2.34 5.28 2 8 C0.4375 6.8125 0.4375 6.8125 -1 5 C-0.6875 2.3125 -0.6875 2.3125 0 0 Z " fill="#3D3C3E" transform="translate(296,602)"/>
</svg>
